<?xml version="1.0" encoding="UTF-8" standalone="no"?><!DOCTYPE svg PUBLIC "-//W3C//DTD SVG 1.1//EN" "http://www.w3.org/Graphics/SVG/1.1/DTD/svg11.dtd"><svg width="100%" height="100%" viewBox="0 0 24 24" version="1.1" xmlns="http://www.w3.org/2000/svg" xmlns:xlink="http://www.w3.org/1999/xlink" xml:space="preserve" xmlns:serif="http://www.serif.com/" style="fill-rule:evenodd;clip-rule:evenodd;stroke-linejoin:round;stroke-miterlimit:2;"><rect id="Domain-1" serif:id="Domain 1" x="0" y="0" width="24" height="24" style="fill:none;"/><path d="M9.867,3.281c0.263,-0.816 1.028,-1.406 1.93,-1.406c1.119,0 2.027,0.908 2.027,2.027c0,1.119 -0.908,2.027 -2.027,2.027c-0.759,0 -1.422,-0.418 -1.769,-1.037c-1.442,0.358 -2.716,1.145 -3.677,2.217c0.113,0.253 0.176,0.533 0.176,0.827c0,1.026 -0.764,1.875 -1.753,2.009c-0.189,0.649 -0.29,1.335 -0.29,2.045c0,0.71 0.101,1.396 0.29,2.045c0.989,0.134 1.753,0.983 1.753,2.009c0,0.294 -0.063,0.573 -0.175,0.826c0.963,1.074 2.24,1.863 3.686,2.22c0.35,-0.609 1.007,-1.019 1.759,-1.019c0.751,0 1.408,0.41 1.758,1.018c1.423,-0.352 2.709,-1.125 3.688,-2.218c-0.113,-0.252 -0.176,-0.532 -0.176,-0.827c0,-1.119 0.909,-2.027 2.027,-2.027c1.119,0 2.027,0.908 2.027,2.027c0,1.119 -0.908,2.027 -2.027,2.027c-0.234,0 -0.459,-0.04 -0.669,-0.113c-1.239,1.377 -2.881,2.335 -4.691,2.738c-0.255,0.827 -1.027,1.429 -1.937,1.429c-0.91,0 -1.681,-0.601 -1.937,-1.428c-1.841,-0.408 -3.469,-1.386 -4.689,-2.74c-0.21,0.074 -0.436,0.114 -0.671,0.114c-1.119,0 -2.027,-0.908 -2.027,-2.027c0,-0.637 0.294,-1.206 0.754,-1.577c-0.227,-0.787 -0.349,-1.618 -0.349,-2.477c0,-0.859 0.122,-1.691 0.349,-2.477c-0.46,-0.372 -0.754,-0.94 -0.754,-1.577c0,-1.119 0.908,-2.027 2.027,-2.027c0.234,0 0.46,0.04 0.669,0.113c1.221,-1.355 2.852,-2.334 4.698,-2.741Zm10.646,3.642c0.56,0 1.014,0.454 1.014,1.013c0,0.559 -0.455,1.014 -1.014,1.014l-2.027,0l0,2.027c0,0.559 -0.454,1.013 -1.013,1.013c-0.56,0 -1.014,-0.454 -1.014,-1.013l0,-2.027l-2.027,0c-0.559,0 -1.013,-0.455 -1.013,-1.014c0,-0.559 0.454,-1.013 1.013,-1.013l2.027,0l0,-2.027c0,-0.56 0.454,-1.014 1.014,-1.014c0.559,0 1.013,0.454 1.013,1.014l0,2.027l2.027,0Z" style="fill:#fff;"/></svg>