<?xml version="1.0" encoding="UTF-8" standalone="no"?><!DOCTYPE svg PUBLIC "-//W3C//DTD SVG 1.1//EN" "http://www.w3.org/Graphics/SVG/1.1/DTD/svg11.dtd"><svg width="100%" height="100%" viewBox="0 0 24 24" version="1.1" xmlns="http://www.w3.org/2000/svg" xmlns:xlink="http://www.w3.org/1999/xlink" xml:space="preserve" xmlns:serif="http://www.serif.com/" style="fill-rule:evenodd;clip-rule:evenodd;stroke-linejoin:round;stroke-miterlimit:2;"><rect id="Domain-fill-5" serif:id="Domain fill 5" x="0" y="0.035" width="24" height="24" style="fill:none;"/><path d="M11,2.22c0.619,-0.357 1.381,-0.357 2,0c1.731,1 5.268,3.042 7,4.042c0.618,0.357 1,1.017 1,1.732l0,8.082c0,0.715 -0.382,1.375 -1,1.732c-1.732,1 -5.269,3.042 -7,4.042c-0.619,0.357 -1.381,0.357 -2,0c-1.731,-1 -5.268,-3.042 -7,-4.042c-0.618,-0.357 -1,-1.017 -1,-1.732l0,-8.082c0,-0.715 0.382,-1.375 1,-1.732c1.732,-1 5.269,-3.042 7,-4.042Zm6,13.315l-10,0l0,1l10,0l0,-1Zm-7,-1l0,-7l-2,0l0,7l2,0Zm6,0l0,-2l-2,0l0,2l2,0Zm-3,-4l-2,0l0,4l2,0l0,-4Z" style="fill:#fff;"/></svg>