<?xml version="1.0" encoding="UTF-8" standalone="no"?><!DOCTYPE svg PUBLIC "-//W3C//DTD SVG 1.1//EN" "http://www.w3.org/Graphics/SVG/1.1/DTD/svg11.dtd"><svg width="100%" height="100%" viewBox="0 0 24 24" version="1.1" xmlns="http://www.w3.org/2000/svg" xmlns:xlink="http://www.w3.org/1999/xlink" xml:space="preserve" xmlns:serif="http://www.serif.com/" style="fill-rule:evenodd;clip-rule:evenodd;stroke-linejoin:round;stroke-miterlimit:2;"><rect id="Domain-4" serif:id="Domain 4" x="0" y="0" width="24" height="24" style="fill:none;"/><path d="M19.205,4c0.439,0.003 0.795,0.36 0.795,0.8c0,0.441 -0.359,0.8 -0.8,0.8l0,0l-0.8,0l-0.001,12.8c-0.075,0.854 -0.619,1.449 -1.597,1.599l-9.604,0c-0.964,-0.085 -1.598,-0.769 -1.598,-1.599l0,-12.8l-0.8,0l0,0c-0.441,0 -0.8,-0.358 -0.8,-0.8c0,-0.441 0.359,-0.8 0.8,-0.8l2.4,0l0,14.4l9.602,0l-0.002,-14.4l2.4,0l0.005,0Zm-7.434,12.8c-0.732,-0.559 -2.971,-2.514 -2.971,-5.507c0,-3.578 3.2,-7.293 3.2,-7.293c0,0 3.2,3.715 3.2,7.293c0,2.993 -2.239,4.948 -2.971,5.507c0.089,-0.955 0.171,-2.269 0.171,-3.886c0,-3.578 -0.4,-7.293 -0.4,-7.293c0,0 -0.4,3.715 -0.4,7.293c0,1.617 0.082,2.931 0.171,3.886Z" style="fill:#fff;"/></svg>