<?xml version="1.0" encoding="UTF-8" standalone="no"?><!DOCTYPE svg PUBLIC "-//W3C//DTD SVG 1.1//EN" "http://www.w3.org/Graphics/SVG/1.1/DTD/svg11.dtd"><svg width="100%" height="100%" viewBox="0 0 24 24" version="1.1" xmlns="http://www.w3.org/2000/svg" xmlns:xlink="http://www.w3.org/1999/xlink" xml:space="preserve" xmlns:serif="http://www.serif.com/" style="fill-rule:evenodd;clip-rule:evenodd;stroke-linejoin:round;stroke-miterlimit:2;"><rect id="Domain-fill-4" serif:id="Domain fill 4" x="0" y="0.035" width="24" height="24" style="fill:none;"/><path d="M11,2.22c0.619,-0.357 1.381,-0.357 2,0c1.731,1 5.268,3.042 7,4.042c0.618,0.357 1,1.017 1,1.732l0,8.082c0,0.715 -0.382,1.375 -1,1.732c-1.732,1 -5.269,3.042 -7,4.042c-0.619,0.357 -1.381,0.357 -2,0c-1.731,-1 -5.268,-3.042 -7,-4.042c-0.618,-0.357 -1,-1.017 -1,-1.732l0,-8.082c0,-0.715 0.382,-1.375 1,-1.732c1.732,-1 5.269,-3.042 7,-4.042Zm5.5,5.815l0,0c0.276,0 0.5,-0.224 0.5,-0.5c0,-0.275 -0.222,-0.498 -0.497,-0.5l-0.003,0l-1.5,0l0.001,9l-6.001,0l0,-9l-1.5,0c-0.276,0 -0.5,0.224 -0.5,0.5c0,0.276 0.224,0.5 0.5,0.5l0,0l0.5,0l0,8c0,0.519 0.396,0.947 0.998,1l6.003,0c0.611,-0.094 0.951,-0.466 0.999,-1l0,-8l0.5,0Zm-4.643,7c-0.458,-0.349 -1.857,-1.571 -1.857,-3.442c0,-2.236 2,-4.558 2,-4.558c0,0 2,2.322 2,4.558c0,1.871 -1.399,3.093 -1.857,3.442c0.056,-0.597 0.107,-1.418 0.107,-2.429c0,-2.236 -0.25,-4.558 -0.25,-4.558c0,0 -0.25,2.322 -0.25,4.558c0,1.011 0.051,1.832 0.107,2.429Z" style="fill:#fff;"/></svg>