<?xml version="1.0" encoding="UTF-8" standalone="no"?><!DOCTYPE svg PUBLIC "-//W3C//DTD SVG 1.1//EN" "http://www.w3.org/Graphics/SVG/1.1/DTD/svg11.dtd"><svg width="100%" height="100%" viewBox="0 0 24 24" version="1.1" xmlns="http://www.w3.org/2000/svg" xmlns:xlink="http://www.w3.org/1999/xlink" xml:space="preserve" xmlns:serif="http://www.serif.com/" style="fill-rule:evenodd;clip-rule:evenodd;stroke-linejoin:round;stroke-miterlimit:2;"><rect id="Domain-fill-3" serif:id="Domain fill 3" x="0" y="0.035" width="24" height="24" style="fill:none;"/><path d="M11,2.22c0.619,-0.357 1.381,-0.357 2,0c1.731,1 5.268,3.042 7,4.042c0.618,0.357 1,1.017 1,1.732l0,8.082c0,0.715 -0.382,1.375 -1,1.732c-1.732,1 -5.269,3.042 -7,4.042c-0.619,0.357 -1.381,0.357 -2,0c-1.731,-1 -5.268,-3.042 -7,-4.042c-0.618,-0.357 -1,-1.017 -1,-1.732l0,-8.082c0,-0.715 0.382,-1.375 1,-1.732c1.732,-1 5.269,-3.042 7,-4.042Zm0.534,7.095c-0.332,-0.17 -0.56,-0.516 -0.56,-0.914c0,-0.566 0.46,-1.026 1.026,-1.026c0.566,0 1.026,0.46 1.026,1.026c0,0.398 -0.228,0.744 -0.56,0.914l0,5.443c0.332,0.17 0.56,0.516 0.56,0.914c0,0.566 -0.46,1.026 -1.026,1.026c-0.566,0 -1.026,-0.46 -1.026,-1.026c0,-0.398 0.228,-0.744 0.56,-0.914l0,-5.443Zm2.798,1.364c-0.449,-0.184 -0.766,-0.626 -0.766,-1.14c0,-0.68 0.552,-1.232 1.232,-1.232c0.68,0 1.231,0.552 1.231,1.232c0,0.514 -0.316,0.956 -0.765,1.14l0,3.553c0.225,0.151 0.373,0.408 0.373,0.698c0,0.463 -0.376,0.84 -0.839,0.84c-0.464,0 -0.84,-0.377 -0.84,-0.84c0,-0.291 0.149,-0.547 0.374,-0.698l0,-3.553Zm-5.596,-0.835c-0.225,-0.15 -0.373,-0.407 -0.373,-0.697c0,-0.464 0.376,-0.84 0.84,-0.84c0.463,0 0.839,0.376 0.839,0.84c0,0.291 -0.148,0.547 -0.374,0.698l0,3.555c0.447,0.185 0.761,0.625 0.761,1.138c0,0.68 -0.552,1.232 -1.231,1.232c-0.68,0 -1.232,-0.552 -1.232,-1.232c0,-0.516 0.319,-0.959 0.77,-1.142l0,-3.552Zm-2.329,0.784c0.777,0 1.408,0.63 1.408,1.407c0,0.777 -0.631,1.408 -1.408,1.408c-0.776,0 -1.407,-0.631 -1.407,-1.408c0,-0.777 0.631,-1.407 1.407,-1.407Zm11.185,0c0.777,0 1.407,0.63 1.407,1.407c0,0.777 -0.63,1.407 -1.407,1.407c-0.777,0 -1.407,-0.63 -1.407,-1.407c0,-0.777 0.63,-1.407 1.407,-1.407Z" style="fill:#fff;"/></svg>