<?xml version="1.0" encoding="UTF-8" standalone="no"?><!DOCTYPE svg PUBLIC "-//W3C//DTD SVG 1.1//EN" "http://www.w3.org/Graphics/SVG/1.1/DTD/svg11.dtd"><svg width="100%" height="100%" viewBox="0 0 24 24" version="1.1" xmlns="http://www.w3.org/2000/svg" xmlns:xlink="http://www.w3.org/1999/xlink" xml:space="preserve" xmlns:serif="http://www.serif.com/" style="fill-rule:evenodd;clip-rule:evenodd;stroke-linejoin:round;stroke-miterlimit:2;"><rect id="Domain-2" serif:id="Domain 2" x="0" y="0" width="24" height="24" style="fill:none;"/><path d="M14.613,17.099c0.131,-0.102 0.294,-0.163 0.472,-0.163c0.425,0 0.769,0.345 0.769,0.769c0,0.246 -0.116,0.466 -0.297,0.606l0,0l-3.079,2.397l0,0c-0.13,0.102 -0.294,0.162 -0.472,0.162c-0.178,0 -0.341,-0.06 -0.472,-0.162l0,0l-3.076,-2.394c-0.182,-0.141 -0.3,-0.361 -0.3,-0.609c0,-0.424 0.345,-0.769 0.769,-0.769c0.178,0 0.341,0.061 0.472,0.162l0,0l2.607,2.03l2.607,-2.029l0,0Zm-9.386,-7.069c0.13,-0.102 0.294,-0.162 0.471,-0.162c0.425,0 0.769,0.344 0.769,0.768c0,0.254 -0.124,0.48 -0.314,0.62l-2.134,1.66l2.151,1.675l0,0c0.181,0.141 0.297,0.36 0.297,0.606c0,0.424 -0.344,0.769 -0.769,0.769c-0.177,0 -0.341,-0.061 -0.472,-0.162l0,0l-2.93,-2.281l0,0c-0.18,-0.141 -0.296,-0.36 -0.296,-0.606c0,-0.247 0.116,-0.466 0.296,-0.607l0,0l2.93,-2.281l0.001,0.001Zm12.618,1.225c-0.189,-0.14 -0.312,-0.365 -0.312,-0.619c0,-0.424 0.344,-0.768 0.768,-0.768c0.178,0 0.342,0.06 0.472,0.162l0,-0.001c0.977,0.761 1.954,1.521 2.93,2.281l0,0c0.181,0.141 0.297,0.36 0.297,0.607c0,0.246 -0.116,0.465 -0.297,0.606c0,0 0,0.001 0,0.001l-0.001,0l0,0l-2.929,2.28l0,0c-0.13,0.101 -0.294,0.162 -0.472,0.162c-0.424,0 -0.768,-0.345 -0.768,-0.769c0,-0.246 0.116,-0.465 0.296,-0.606l0,0l2.151,-1.675l-2.135,-1.661Zm-6.059,4.182c-0.703,-0.537 -2.854,-2.415 -2.854,-5.29c0,-3.437 3.074,-7.006 3.074,-7.006c0,0 3.074,3.569 3.074,7.006c0,2.875 -2.151,4.753 -2.854,5.29c0.086,-0.917 0.164,-2.18 0.164,-3.733c0,-3.438 -0.384,-7.006 -0.384,-7.006c0,0 -0.384,3.568 -0.384,7.006c0,1.553 0.078,2.816 0.164,3.733Z" style="fill:#fff;"/></svg>