<?xml version="1.0" encoding="UTF-8" standalone="no"?><!DOCTYPE svg PUBLIC "-//W3C//DTD SVG 1.1//EN" "http://www.w3.org/Graphics/SVG/1.1/DTD/svg11.dtd"><svg width="100%" height="100%" viewBox="0 0 24 24" version="1.1" xmlns="http://www.w3.org/2000/svg" xmlns:xlink="http://www.w3.org/1999/xlink" xml:space="preserve" xmlns:serif="http://www.serif.com/" style="fill-rule:evenodd;clip-rule:evenodd;stroke-linejoin:round;stroke-miterlimit:2;"><rect id="Domain-fill-2" serif:id="Domain fill 2" x="0" y="0.035" width="24" height="24" style="fill:none;"/><path d="M11,2.22c0.619,-0.357 1.381,-0.357 2,0c1.731,1 5.268,3.042 7,4.042c0.618,0.357 1,1.017 1,1.732l0,8.082c0,0.715 -0.382,1.375 -1,1.732c-1.732,1 -5.269,3.042 -7,4.042c-0.619,0.357 -1.381,0.357 -2,0c-1.731,-1 -5.268,-3.042 -7,-4.042c-0.618,-0.357 -1,-1.017 -1,-1.732l0,-8.082c0,-0.715 0.382,-1.375 1,-1.732c1.732,-1 5.269,-3.042 7,-4.042Zm2.694,12.536c0.085,-0.066 0.191,-0.106 0.307,-0.106c0.276,0 0.5,0.224 0.5,0.5c0,0.16 -0.075,0.303 -0.193,0.395l0,0l-2.003,1.559l0,0c-0.085,0.066 -0.191,0.106 -0.307,0.106c-0.116,0 -0.222,-0.04 -0.307,-0.106l0,0l-2.002,-1.558c-0.118,-0.091 -0.195,-0.235 -0.195,-0.396c0,-0.276 0.224,-0.5 0.5,-0.5c0.116,0 0.223,0.04 0.307,0.106l0,-0.001l1.697,1.321l1.696,-1.32l0,0Zm-1.837,-0.721c-0.458,-0.349 -1.857,-1.571 -1.857,-3.442c0,-2.236 2,-4.558 2,-4.558c0,0 2,2.322 2,4.558c0,1.871 -1.399,3.093 -1.857,3.442c0.056,-0.597 0.107,-1.418 0.107,-2.429c0,-2.236 -0.25,-4.558 -0.25,-4.558c0,0 -0.25,2.322 -0.25,4.558c0,1.011 0.051,1.832 0.107,2.429Zm3.94,-3.081c-0.124,-0.091 -0.204,-0.238 -0.204,-0.403c0,-0.276 0.224,-0.5 0.5,-0.5c0.116,0 0.223,0.04 0.307,0.106l0.001,-0.001c0.635,0.495 1.27,0.99 1.906,1.484l0,0c0.117,0.092 0.193,0.235 0.193,0.395c0,0.16 -0.076,0.303 -0.193,0.394c0,0 -0.001,0.001 -0.001,0.001l0,0l0,0l-1.905,1.483l-0.001,0c-0.084,0.066 -0.191,0.106 -0.307,0.106c-0.276,0 -0.5,-0.224 -0.5,-0.5c0,-0.161 0.076,-0.303 0.193,-0.395l0,0l1.4,-1.089l-1.389,-1.081Zm-8.21,-0.797c0.085,-0.066 0.191,-0.106 0.307,-0.106c0.276,0 0.5,0.224 0.5,0.5c0,0.166 -0.08,0.312 -0.204,0.403l-1.388,1.081l1.399,1.089l0,0c0.117,0.092 0.193,0.234 0.193,0.395c0,0.276 -0.224,0.5 -0.5,0.5c-0.116,0 -0.222,-0.04 -0.307,-0.106l0,0l-1.907,-1.484l0,0c-0.117,-0.091 -0.192,-0.234 -0.192,-0.394c0,-0.16 0.075,-0.303 0.193,-0.395l-0.001,0l1.907,-1.484l0,0.001Z" style="fill:#fff;"/></svg>