<?xml version="1.0" encoding="UTF-8" standalone="no"?><!DOCTYPE svg PUBLIC "-//W3C//DTD SVG 1.1//EN" "http://www.w3.org/Graphics/SVG/1.1/DTD/svg11.dtd"><svg width="100%" height="100%" viewBox="0 0 24 24" version="1.1" xmlns="http://www.w3.org/2000/svg" xmlns:xlink="http://www.w3.org/1999/xlink" xml:space="preserve" xmlns:serif="http://www.serif.com/" style="fill-rule:evenodd;clip-rule:evenodd;stroke-linejoin:round;stroke-miterlimit:2;"><rect id="Domain-fill1" serif:id="Domain fill1" x="0" y="0.035" width="24" height="24" style="fill:none;"/><path d="M11,2.22c0.619,-0.357 1.381,-0.357 2,0c1.731,1 5.268,3.042 7,4.042c0.618,0.357 1,1.017 1,1.732l0,8.082c0,0.715 -0.382,1.375 -1,1.732c-1.732,1 -5.269,3.042 -7,4.042c-0.619,0.357 -1.381,0.357 -2,0c-1.731,-1 -5.268,-3.042 -7,-4.042c-0.618,-0.357 -1,-1.017 -1,-1.732l0,-8.082c0,-0.715 0.382,-1.375 1,-1.732c1.732,-1 5.269,-3.042 7,-4.042Zm-0.19,4.444c0.162,-0.503 0.634,-0.867 1.19,-0.867c0.69,0 1.25,0.56 1.25,1.25c0,0.69 -0.56,1.25 -1.25,1.25c-0.468,0 -0.877,-0.258 -1.091,-0.639c-0.889,0.221 -1.675,0.706 -2.268,1.367c0.07,0.156 0.109,0.328 0.109,0.51c0,0.633 -0.471,1.156 -1.081,1.239c-0.117,0.4 -0.179,0.823 -0.179,1.261c0,0.438 0.063,0.861 0.179,1.261c0.61,0.083 1.081,0.607 1.081,1.239c0,0.181 -0.039,0.354 -0.108,0.509c0.594,0.663 1.382,1.149 2.273,1.37c0.216,-0.376 0.621,-0.629 1.085,-0.629c0.463,0 0.868,0.253 1.084,0.628c0.877,-0.217 1.671,-0.694 2.275,-1.368c-0.07,-0.156 -0.109,-0.328 -0.109,-0.51c0,-0.69 0.56,-1.25 1.25,-1.25c0.69,0 1.25,0.56 1.25,1.25c0,0.69 -0.56,1.25 -1.25,1.25c-0.145,0 -0.283,-0.024 -0.413,-0.07c-0.764,0.849 -1.776,1.441 -2.893,1.689c-0.157,0.51 -0.633,0.881 -1.194,0.881c-0.561,0 -1.037,-0.371 -1.194,-0.88c-1.136,-0.252 -2.14,-0.855 -2.892,-1.69c-0.13,0.045 -0.269,0.07 -0.414,0.07c-0.69,0 -1.25,-0.56 -1.25,-1.25c0,-0.393 0.182,-0.743 0.465,-0.973c-0.14,-0.485 -0.215,-0.997 -0.215,-1.527c0,-0.53 0.075,-1.042 0.215,-1.527c-0.284,-0.23 -0.465,-0.58 -0.465,-0.973c0,-0.69 0.56,-1.25 1.25,-1.25c0.145,0 0.283,0.025 0.413,0.07c0.753,-0.836 1.759,-1.44 2.897,-1.691Zm5.315,2.246l0,-1.25c0,-0.345 -0.28,-0.625 -0.625,-0.625c-0.345,0 -0.625,0.28 -0.625,0.625l0,1.25l-1.25,0c-0.345,0 -0.625,0.28 -0.625,0.625c0,0.345 0.28,0.625 0.625,0.625l1.25,0l0,1.25c0,0.345 0.28,0.625 0.625,0.625c0.345,0 0.625,-0.28 0.625,-0.625l0,-1.25l1.25,0c0.345,0 0.625,-0.28 0.625,-0.625c0,-0.345 -0.28,-0.625 -0.625,-0.625l-1.25,0Z" style="fill:#fff;"/></svg>