<?xml version="1.0" encoding="UTF-8" standalone="no"?><!DOCTYPE svg PUBLIC "-//W3C//DTD SVG 1.1//EN" "http://www.w3.org/Graphics/SVG/1.1/DTD/svg11.dtd"><svg width="100%" height="100%" viewBox="0 0 24 24" version="1.1" xmlns="http://www.w3.org/2000/svg" xmlns:xlink="http://www.w3.org/1999/xlink" xml:space="preserve" xmlns:serif="http://www.serif.com/" style="fill-rule:evenodd;clip-rule:evenodd;stroke-linejoin:round;stroke-miterlimit:2;"><rect id="Domain-3" serif:id="Domain 3" x="0" y="0" width="24" height="24" style="fill:none;"/><path d="M11.334,8.112c-0.474,-0.243 -0.799,-0.737 -0.799,-1.306c0,-0.809 0.656,-1.466 1.465,-1.466c0.809,0 1.466,0.657 1.466,1.466c0,0.569 -0.325,1.063 -0.799,1.306l0,7.776c0.474,0.243 0.799,0.737 0.799,1.306c0,0.809 -0.657,1.465 -1.466,1.465c-0.808,0 -1.465,-0.656 -1.465,-1.465c0,-0.569 0.325,-1.063 0.799,-1.306l0,-7.776Zm3.997,1.948c-0.641,-0.263 -1.093,-0.893 -1.093,-1.629c0,-0.971 0.789,-1.759 1.76,-1.759c0.97,0 1.759,0.788 1.759,1.759c0,0.736 -0.452,1.366 -1.093,1.629l0,5.077c0.321,0.215 0.532,0.581 0.532,0.997c0,0.661 -0.537,1.199 -1.199,1.199c-0.662,0 -1.199,-0.538 -1.199,-1.199c0,-0.416 0.212,-0.782 0.533,-0.998l0,-5.076Zm-7.994,-1.192c-0.321,-0.216 -0.532,-0.582 -0.532,-0.997c0,-0.662 0.537,-1.199 1.199,-1.199c0.662,0 1.199,0.537 1.199,1.199c0,0.416 -0.212,0.783 -0.534,0.998l0,5.079c0.638,0.264 1.087,0.893 1.087,1.626c0,0.97 -0.788,1.759 -1.759,1.759c-0.971,0 -1.759,-0.789 -1.759,-1.759c0,-0.738 0.455,-1.37 1.099,-1.632l0,-5.074Zm-3.326,1.119c1.109,0 2.01,0.901 2.01,2.011c0,1.109 -0.901,2.01 -2.01,2.01c-1.11,0 -2.011,-0.901 -2.011,-2.01c0,-1.11 0.901,-2.011 2.011,-2.011Zm15.978,0c1.11,0 2.011,0.901 2.011,2.011c0,1.109 -0.901,2.01 -2.011,2.01c-1.109,0 -2.01,-0.901 -2.01,-2.01c0,-1.11 0.901,-2.011 2.01,-2.011Z" style="fill:#fff;"/></svg>