<?xml version="1.0" encoding="UTF-8" standalone="no"?>
<!DOCTYPE svg PUBLIC "-//W3C//DTD SVG 1.1//EN" "http://www.w3.org/Graphics/SVG/1.1/DTD/svg11.dtd">
<svg width="100%" height="100%" viewBox="0 0 24 24" version="1.1" xmlns="http://www.w3.org/2000/svg" xmlns:xlink="http://www.w3.org/1999/xlink" xml:space="preserve" xmlns:serif="http://www.serif.com/" style="fill-rule:evenodd;clip-rule:evenodd;stroke-linejoin:round;stroke-miterlimit:2;">
    <g transform="matrix(1,0,0,1,-378,-228)">
        <g id="Domain-4" serif:id="Domain 4" transform="matrix(1,0,0,1,378,228)">
            <rect x="0" y="0" width="24" height="24" style="fill:none;"/>
            <g transform="matrix(1.59994,0,0,1.59994,-612.491,-297.109)">
                <path d="M394.825,188.2C395.1,188.202 395.322,188.426 395.322,188.7C395.322,188.976 395.098,189.2 394.822,189.2L394.822,189.2L394.322,189.2L394.322,197.201C394.274,197.735 393.934,198.106 393.323,198.2L387.32,198.2C386.718,198.147 386.322,197.72 386.322,197.2L386.322,189.2L385.822,189.2L385.822,189.2C385.546,189.2 385.322,188.976 385.322,188.7C385.322,188.424 385.546,188.2 385.822,188.2L387.322,188.2L387.322,197.201L393.323,197.201L393.322,188.2L394.822,188.2L394.825,188.2ZM390.179,196.2C389.721,195.851 388.322,194.629 388.322,192.759C388.322,190.522 390.322,188.2 390.322,188.2C390.322,188.2 392.322,190.522 392.322,192.759C392.322,194.629 390.923,195.851 390.465,196.2C390.521,195.604 390.572,194.782 390.572,193.772C390.572,191.535 390.322,189.213 390.322,189.213C390.322,189.213 390.072,191.535 390.072,193.772C390.072,194.782 390.123,195.604 390.179,196.2Z" style="fill:rgb(51,51,51);"/>
            </g>
        </g>
    </g>
</svg>
