<?xml version="1.0" encoding="UTF-8" standalone="no"?>
<!DOCTYPE svg PUBLIC "-//W3C//DTD SVG 1.1//EN" "http://www.w3.org/Graphics/SVG/1.1/DTD/svg11.dtd">
<svg width="100%" height="100%" viewBox="0 0 24 24" version="1.1" xmlns="http://www.w3.org/2000/svg" xmlns:xlink="http://www.w3.org/1999/xlink" xml:space="preserve" xmlns:serif="http://www.serif.com/" style="fill-rule:evenodd;clip-rule:evenodd;stroke-linejoin:round;stroke-miterlimit:2;">
    <g transform="matrix(1,0,0,1,-270,-289)">
        <g id="Domain-fill1" serif:id="Domain fill1" transform="matrix(1,0,0,1,270,289.035)">
            <rect x="0" y="0" width="24" height="24" style="fill:none;"/>
            <g transform="matrix(1,0,0,1,-270,-289.035)">
                <path d="M281,291.22C281.619,290.863 282.381,290.863 283,291.22C284.731,292.22 288.268,294.262 290,295.262C290.618,295.619 291,296.279 291,296.994L291,305.076C291,305.791 290.618,306.451 290,306.808C288.268,307.808 284.731,309.85 283,310.85C282.381,311.207 281.619,311.207 281,310.85C279.269,309.85 275.732,307.808 274,306.808C273.382,306.451 273,305.791 273,305.076L273,296.994C273,296.279 273.382,295.619 274,295.262C275.732,294.262 279.269,292.22 281,291.22ZM280.81,295.664C280.972,295.161 281.444,294.797 282,294.797C282.69,294.797 283.25,295.357 283.25,296.047C283.25,296.737 282.69,297.297 282,297.297C281.532,297.297 281.123,297.039 280.909,296.658C280.02,296.879 279.234,297.364 278.641,298.025C278.711,298.181 278.75,298.353 278.75,298.535C278.75,299.168 278.279,299.691 277.669,299.774C277.552,300.174 277.49,300.597 277.49,301.035C277.49,301.473 277.553,301.896 277.669,302.296C278.279,302.379 278.75,302.903 278.75,303.535C278.75,303.716 278.711,303.889 278.642,304.044C279.236,304.707 280.024,305.193 280.915,305.414C281.131,305.038 281.536,304.785 282,304.785C282.463,304.785 282.868,305.038 283.084,305.413C283.961,305.196 284.755,304.719 285.359,304.045C285.289,303.889 285.25,303.717 285.25,303.535C285.25,302.845 285.81,302.285 286.5,302.285C287.19,302.285 287.75,302.845 287.75,303.535C287.75,304.225 287.19,304.785 286.5,304.785C286.355,304.785 286.217,304.761 286.087,304.715C285.323,305.564 284.311,306.156 283.194,306.404C283.037,306.914 282.561,307.285 282,307.285C281.439,307.285 280.963,306.914 280.806,306.405C279.67,306.153 278.666,305.55 277.914,304.715C277.784,304.76 277.645,304.785 277.5,304.785C276.81,304.785 276.25,304.225 276.25,303.535C276.25,303.142 276.432,302.792 276.715,302.562C276.575,302.077 276.5,301.565 276.5,301.035C276.5,300.505 276.575,299.993 276.715,299.508C276.431,299.278 276.25,298.928 276.25,298.535C276.25,297.845 276.81,297.285 277.5,297.285C277.645,297.285 277.783,297.31 277.913,297.355C278.666,296.519 279.672,295.915 280.81,295.664ZM286.125,297.91L286.125,296.66C286.125,296.315 285.845,296.035 285.5,296.035C285.155,296.035 284.875,296.315 284.875,296.66L284.875,297.91L283.625,297.91C283.28,297.91 283,298.19 283,298.535C283,298.88 283.28,299.16 283.625,299.16L284.875,299.16L284.875,300.41C284.875,300.755 285.155,301.035 285.5,301.035C285.845,301.035 286.125,300.755 286.125,300.41L286.125,299.16L287.375,299.16C287.72,299.16 288,298.88 288,298.535C288,298.19 287.72,297.91 287.375,297.91L286.125,297.91Z" style="fill:rgb(51,51,51);"/>
            </g>
        </g>
    </g>
</svg>
