<?xml version="1.0" encoding="UTF-8" standalone="no"?>
<!DOCTYPE svg PUBLIC "-//W3C//DTD SVG 1.1//EN" "http://www.w3.org/Graphics/SVG/1.1/DTD/svg11.dtd">
<svg width="100%" height="100%" viewBox="0 0 24 24" version="1.1" xmlns="http://www.w3.org/2000/svg" xmlns:xlink="http://www.w3.org/1999/xlink" xml:space="preserve" xmlns:serif="http://www.serif.com/" style="fill-rule:evenodd;clip-rule:evenodd;stroke-linejoin:round;stroke-miterlimit:2;">
    <g transform="matrix(1,0,0,1,-338,-228)">
        <g id="Domain-3" serif:id="Domain 3" transform="matrix(1,0,0,1,338,228)">
            <rect x="0" y="0" width="24" height="24" style="fill:none;"/>
            <g transform="matrix(1.42863,0,0,1.42863,-493.963,-263.656)">
                <path d="M353.695,190.23C353.363,190.06 353.135,189.715 353.135,189.316C353.135,188.75 353.595,188.29 354.161,188.29C354.727,188.29 355.187,188.75 355.187,189.316C355.187,189.715 354.959,190.06 354.627,190.23L354.627,195.674C354.959,195.844 355.187,196.189 355.187,196.588C355.187,197.154 354.727,197.613 354.161,197.613C353.595,197.613 353.135,197.154 353.135,196.588C353.135,196.189 353.363,195.844 353.695,195.674L353.695,190.23ZM356.493,191.594C356.044,191.41 355.727,190.969 355.727,190.454C355.727,189.774 356.279,189.223 356.959,189.223C357.638,189.223 358.19,189.774 358.19,190.454C358.19,190.969 357.874,191.41 357.425,191.594L357.425,195.148C357.65,195.298 357.798,195.555 357.798,195.845C357.798,196.309 357.422,196.685 356.959,196.685C356.495,196.685 356.119,196.309 356.119,195.845C356.119,195.555 356.268,195.298 356.493,195.147L356.493,191.594ZM350.897,190.76C350.672,190.609 350.524,190.353 350.524,190.062C350.524,189.599 350.9,189.223 351.364,189.223C351.827,189.223 352.203,189.599 352.203,190.062C352.203,190.353 352.055,190.61 351.829,190.76L351.829,194.315C352.276,194.5 352.59,194.94 352.59,195.453C352.59,196.133 352.038,196.685 351.359,196.685C350.679,196.685 350.127,196.133 350.127,195.453C350.127,194.937 350.446,194.495 350.897,194.312L350.897,190.76ZM348.568,191.543C349.345,191.543 349.976,192.174 349.976,192.95C349.976,193.727 349.345,194.358 348.568,194.358C347.792,194.358 347.161,193.727 347.161,192.95C347.161,192.174 347.792,191.543 348.568,191.543ZM359.753,191.543C360.53,191.543 361.16,192.174 361.16,192.95C361.16,193.727 360.53,194.358 359.753,194.358C358.976,194.358 358.346,193.727 358.346,192.95C358.346,192.174 358.976,191.543 359.753,191.543Z" style="fill:rgb(51,51,51);"/>
            </g>
        </g>
    </g>
</svg>
