<?xml version="1.0" encoding="UTF-8" standalone="no"?>
<!DOCTYPE svg PUBLIC "-//W3C//DTD SVG 1.1//EN" "http://www.w3.org/Graphics/SVG/1.1/DTD/svg11.dtd">
<svg width="100%" height="100%" viewBox="0 0 24 24" version="1.1" xmlns="http://www.w3.org/2000/svg" xmlns:xlink="http://www.w3.org/1999/xlink" xml:space="preserve" xmlns:serif="http://www.serif.com/" style="fill-rule:evenodd;clip-rule:evenodd;stroke-linejoin:round;stroke-miterlimit:2;">
    <g transform="matrix(1,0,0,1,-308,-228)">
        <g id="Domain-2" serif:id="Domain 2" transform="matrix(1,0,0,1,308,228)">
            <rect x="0" y="0" width="24" height="24" style="fill:none;"/>
            <g transform="matrix(1,0,0,1,-306,-228.125)">
                <path d="M320.613,245.224C320.743,245.122 320.907,245.062 321.085,245.062C321.509,245.062 321.854,245.406 321.854,245.83C321.854,246.077 321.738,246.296 321.557,246.437L321.557,246.437L318.478,248.833L318.478,248.833C318.348,248.935 318.184,248.995 318.006,248.995C317.828,248.995 317.665,248.935 317.534,248.833L317.534,248.834L314.458,246.439C314.276,246.298 314.158,246.078 314.158,245.83C314.158,245.406 314.503,245.062 314.927,245.062C315.104,245.062 315.268,245.122 315.399,245.224L315.399,245.224L318.006,247.253L320.613,245.224L320.613,245.224ZM311.226,238.155C311.357,238.053 311.52,237.993 311.698,237.993C312.122,237.993 312.467,238.337 312.467,238.761C312.467,239.015 312.343,239.241 312.153,239.381L310.019,241.042L312.17,242.716L312.17,242.716C312.351,242.857 312.467,243.076 312.467,243.322C312.467,243.747 312.122,244.091 311.698,244.091C311.52,244.091 311.357,244.03 311.226,243.929L311.226,243.929L308.296,241.648L308.296,241.648C308.116,241.507 308,241.288 308,241.042C308,240.796 308.116,240.576 308.296,240.435L308.296,240.435L311.226,238.155L311.226,238.155ZM323.845,239.38C323.656,239.24 323.533,239.015 323.533,238.761C323.533,238.337 323.877,237.993 324.301,237.993C324.479,237.993 324.643,238.053 324.773,238.155L324.773,238.155C325.75,238.915 326.727,239.675 327.703,240.435L327.703,240.435C327.884,240.576 328,240.796 328,241.042C328,241.288 327.884,241.507 327.703,241.648C327.703,241.648 327.702,241.649 327.702,241.649L327.702,241.649L327.702,241.649L324.773,243.929L324.773,243.929C324.643,244.03 324.479,244.091 324.301,244.091C323.877,244.091 323.533,243.747 323.533,243.322C323.533,243.076 323.649,242.857 323.829,242.716L323.829,242.716L325.98,241.042L323.845,239.38ZM317.786,243.562C317.083,243.025 314.932,241.147 314.932,238.272C314.932,234.835 318.006,231.266 318.006,231.266C318.006,231.266 321.08,234.835 321.08,238.272C321.08,241.147 318.929,243.025 318.226,243.562C318.312,242.645 318.39,241.382 318.39,239.829C318.39,236.392 318.006,232.823 318.006,232.823C318.006,232.823 317.622,236.392 317.622,239.829C317.622,241.382 317.7,242.645 317.786,243.562Z" style="fill:rgb(51,51,51);"/>
            </g>
        </g>
    </g>
</svg>
