<?xml version="1.0" encoding="UTF-8" standalone="no"?>
<!DOCTYPE svg PUBLIC "-//W3C//DTD SVG 1.1//EN" "http://www.w3.org/Graphics/SVG/1.1/DTD/svg11.dtd">
<svg width="100%" height="100%" viewBox="0 0 24 24" version="1.1" xmlns="http://www.w3.org/2000/svg" xmlns:xlink="http://www.w3.org/1999/xlink" xml:space="preserve" xmlns:serif="http://www.serif.com/" style="fill-rule:evenodd;clip-rule:evenodd;stroke-linejoin:round;stroke-miterlimit:2;">
    <g transform="matrix(1,0,0,1,-390,-289)">
        <g id="Domain-fill-5" serif:id="Domain fill 5" transform="matrix(1,0,0,1,390,289.035)">
            <rect x="0" y="0" width="24" height="24" style="fill:none;"/>
            <g transform="matrix(1,0,0,1,-390,-289.035)">
                <path d="M401,291.22C401.619,290.863 402.381,290.863 403,291.22C404.731,292.22 408.268,294.262 410,295.262C410.618,295.619 411,296.279 411,296.994L411,305.076C411,305.791 410.618,306.451 410,306.808C408.268,307.808 404.731,309.85 403,310.85C402.381,311.207 401.619,311.207 401,310.85C399.269,309.85 395.732,307.808 394,306.808C393.382,306.451 393,305.791 393,305.076L393,296.994C393,296.279 393.382,295.619 394,295.262C395.732,294.262 399.269,292.22 401,291.22ZM407,304.535L397,304.535L397,305.535L407,305.535L407,304.535ZM400,303.535L400,296.535L398,296.535L398,303.535L400,303.535ZM406,303.535L406,301.535L404,301.535L404,303.535L406,303.535ZM403,299.535L401,299.535L401,303.535L403,303.535L403,299.535Z" style="fill:rgb(51,51,51);"/>
            </g>
        </g>
    </g>
</svg>
