<?xml version="1.0" encoding="UTF-8" standalone="no"?>
<!DOCTYPE svg PUBLIC "-//W3C//DTD SVG 1.1//EN" "http://www.w3.org/Graphics/SVG/1.1/DTD/svg11.dtd">
<svg width="100%" height="100%" viewBox="0 0 24 24" version="1.1" xmlns="http://www.w3.org/2000/svg" xmlns:xlink="http://www.w3.org/1999/xlink" xml:space="preserve" xmlns:serif="http://www.serif.com/" style="fill-rule:evenodd;clip-rule:evenodd;stroke-linejoin:round;stroke-miterlimit:2;">
    <g transform="matrix(1,0,0,1,-408,-228)">
        <g id="Domain-5" serif:id="Domain 5" transform="matrix(1,0,0,1,408,228)">
            <rect x="0" y="0" width="24" height="24" style="fill:none;"/>
            <g transform="matrix(1,0,0,1,-408,-228)">
                <path d="M428,247.2L412,247.2L412,245.6L428,245.6L428,247.2ZM421.6,244L418.4,244L418.4,237.6L421.6,237.6L421.6,244ZM416.8,244L413.6,244L413.6,232.8L416.8,232.8L416.8,244ZM426.4,244L423.2,244L423.2,240.8L426.4,240.8L426.4,244Z" style="fill:rgb(51,51,51);"/>
            </g>
        </g>
    </g>
</svg>
