<?xml version="1.0" encoding="UTF-8" standalone="no"?>
<!DOCTYPE svg PUBLIC "-//W3C//DTD SVG 1.1//EN" "http://www.w3.org/Graphics/SVG/1.1/DTD/svg11.dtd">
<svg width="100%" height="100%" viewBox="0 0 24 24" version="1.1" xmlns="http://www.w3.org/2000/svg" xmlns:xlink="http://www.w3.org/1999/xlink" xml:space="preserve" xmlns:serif="http://www.serif.com/" style="fill-rule:evenodd;clip-rule:evenodd;stroke-linejoin:round;stroke-miterlimit:2;">
    <g transform="matrix(1,0,0,1,-300,-289)">
        <g id="Domain-fill-2" serif:id="Domain fill 2" transform="matrix(1,0,0,1,300,289.035)">
            <rect x="0" y="0" width="24" height="24" style="fill:none;"/>
            <g transform="matrix(1,0,0,1,-300,-289.035)">
                <path d="M311,291.22C311.619,290.863 312.381,290.863 313,291.22C314.731,292.22 318.268,294.262 320,295.262C320.618,295.619 321,296.279 321,296.994L321,305.076C321,305.791 320.618,306.451 320,306.808C318.268,307.808 314.731,309.85 313,310.85C312.381,311.207 311.619,311.207 311,310.85C309.269,309.85 305.732,307.808 304,306.808C303.382,306.451 303,305.791 303,305.076L303,296.994C303,296.279 303.382,295.619 304,295.262C305.732,294.262 309.269,292.22 311,291.22ZM313.694,303.756C313.779,303.69 313.885,303.65 314.001,303.65C314.277,303.65 314.501,303.874 314.501,304.15C314.501,304.31 314.426,304.453 314.308,304.545L314.308,304.545L312.305,306.104L312.305,306.104C312.22,306.17 312.114,306.21 311.998,306.21C311.882,306.21 311.776,306.17 311.691,306.104L311.691,306.104L309.689,304.546C309.571,304.455 309.494,304.311 309.494,304.15C309.494,303.874 309.718,303.65 309.994,303.65C310.11,303.65 310.217,303.69 310.301,303.756L310.301,303.755L311.998,305.076L313.694,303.756L313.694,303.756ZM311.857,303.035C311.399,302.686 310,301.464 310,299.593C310,297.357 312,295.035 312,295.035C312,295.035 314,297.357 314,299.593C314,301.464 312.601,302.686 312.143,303.035C312.199,302.438 312.25,301.617 312.25,300.606C312.25,298.37 312,296.048 312,296.048C312,296.048 311.75,298.37 311.75,300.606C311.75,301.617 311.801,302.438 311.857,303.035ZM315.797,299.954C315.673,299.863 315.593,299.716 315.593,299.551C315.593,299.275 315.817,299.051 316.093,299.051C316.209,299.051 316.316,299.091 316.4,299.157L316.401,299.156C317.036,299.651 317.671,300.146 318.307,300.64L318.307,300.64C318.424,300.732 318.5,300.875 318.5,301.035C318.5,301.195 318.424,301.338 318.307,301.429C318.307,301.429 318.306,301.43 318.306,301.43L318.306,301.43L318.306,301.43L316.401,302.913L316.4,302.913C316.316,302.979 316.209,303.019 316.093,303.019C315.817,303.019 315.593,302.795 315.593,302.519C315.593,302.358 315.669,302.216 315.786,302.124L315.786,302.124L317.186,301.035L315.797,299.954ZM307.587,299.157C307.672,299.091 307.778,299.051 307.894,299.051C308.17,299.051 308.394,299.275 308.394,299.551C308.394,299.717 308.314,299.863 308.19,299.954L306.802,301.035L308.201,302.124L308.201,302.124C308.318,302.216 308.394,302.358 308.394,302.519C308.394,302.795 308.17,303.019 307.894,303.019C307.778,303.019 307.672,302.979 307.587,302.913L307.587,302.913L305.68,301.429L305.68,301.429C305.563,301.338 305.488,301.195 305.488,301.035C305.488,300.875 305.563,300.732 305.681,300.64L305.68,300.64L307.587,299.156L307.587,299.157Z" style="fill:rgb(51,51,51);"/>
            </g>
        </g>
    </g>
</svg>
