<?xml version="1.0" encoding="UTF-8" standalone="no"?>
<!DOCTYPE svg PUBLIC "-//W3C//DTD SVG 1.1//EN" "http://www.w3.org/Graphics/SVG/1.1/DTD/svg11.dtd">
<svg width="100%" height="100%" viewBox="0 0 24 24" version="1.1" xmlns="http://www.w3.org/2000/svg" xmlns:xlink="http://www.w3.org/1999/xlink" xml:space="preserve" xmlns:serif="http://www.serif.com/" style="fill-rule:evenodd;clip-rule:evenodd;stroke-linejoin:round;stroke-miterlimit:2;">
    <g transform="matrix(1,0,0,1,-268,-228)">
        <g id="Domain-1" transform="matrix(1,0,0,1,268,228)">
            <rect x="0" y="0" width="24" height="24" style="fill:none;"/>
            <g transform="matrix(1.62158,0,0,1.62158,-262.25,-10.7121)">
                <path d="M167.81,8.629C167.972,8.126 168.444,7.762 169,7.762C169.69,7.762 170.25,8.322 170.25,9.012C170.25,9.702 169.69,10.262 169,10.262C168.532,10.262 168.123,10.004 167.909,9.623C167.02,9.844 166.234,10.329 165.641,10.99C165.711,11.146 165.75,11.318 165.75,11.5C165.75,12.133 165.279,12.656 164.669,12.739C164.552,13.139 164.49,13.562 164.49,14C164.49,14.438 164.553,14.861 164.669,15.261C165.279,15.344 165.75,15.867 165.75,16.5C165.75,16.681 165.711,16.854 165.642,17.009C166.236,17.672 167.024,18.158 167.915,18.378C168.131,18.003 168.536,17.75 169,17.75C169.463,17.75 169.868,18.003 170.084,18.378C170.961,18.161 171.755,17.684 172.359,17.01C172.289,16.854 172.25,16.682 172.25,16.5C172.25,15.81 172.81,15.25 173.5,15.25C174.19,15.25 174.75,15.81 174.75,16.5C174.75,17.19 174.19,17.75 173.5,17.75C173.355,17.75 173.217,17.725 173.087,17.68C172.323,18.529 171.311,19.121 170.194,19.369C170.037,19.879 169.561,20.25 169,20.25C168.439,20.25 167.963,19.879 167.806,19.37C166.67,19.118 165.666,18.514 164.914,17.68C164.784,17.725 164.645,17.75 164.5,17.75C163.81,17.75 163.25,17.19 163.25,16.5C163.25,16.107 163.432,15.757 163.715,15.527C163.575,15.042 163.5,14.53 163.5,14C163.5,13.47 163.575,12.957 163.715,12.472C163.431,12.243 163.25,11.893 163.25,11.5C163.25,10.81 163.81,10.25 164.5,10.25C164.645,10.25 164.783,10.275 164.913,10.32C165.666,9.484 166.672,8.88 167.81,8.629ZM174.375,10.875C174.72,10.875 175,11.155 175,11.5C175,11.845 174.72,12.125 174.375,12.125L173.125,12.125L173.125,13.375C173.125,13.72 172.845,14 172.5,14C172.155,14 171.875,13.72 171.875,13.375L171.875,12.125L170.625,12.125C170.28,12.125 170,11.845 170,11.5C170,11.155 170.28,10.875 170.625,10.875L171.875,10.875L171.875,9.625C171.875,9.28 172.155,9 172.5,9C172.845,9 173.125,9.28 173.125,9.625L173.125,10.875L174.375,10.875Z" style="fill:rgb(51,51,51);"/>
            </g>
        </g>
    </g>
</svg>
