<?xml version="1.0" encoding="UTF-8" standalone="no"?>
<!DOCTYPE svg PUBLIC "-//W3C//DTD SVG 1.1//EN" "http://www.w3.org/Graphics/SVG/1.1/DTD/svg11.dtd">
<svg width="100%" height="100%" viewBox="0 0 24 24" version="1.1" xmlns="http://www.w3.org/2000/svg" xmlns:xlink="http://www.w3.org/1999/xlink" xml:space="preserve" xmlns:serif="http://www.serif.com/" style="fill-rule:evenodd;clip-rule:evenodd;stroke-linejoin:round;stroke-miterlimit:2;">
    <g transform="matrix(1,0,0,1,-330,-289)">
        <g id="Domain-fill-3" serif:id="Domain fill 3" transform="matrix(1,0,0,1,330,289.035)">
            <rect x="0" y="0" width="24" height="24" style="fill:none;"/>
            <g transform="matrix(1,0,0,1,-330,-289.035)">
                <path d="M341,291.22C341.619,290.863 342.381,290.863 343,291.22C344.731,292.22 348.268,294.262 350,295.262C350.618,295.619 351,296.279 351,296.994L351,305.076C351,305.791 350.618,306.451 350,306.808C348.268,307.808 344.731,309.85 343,310.85C342.381,311.207 341.619,311.207 341,310.85C339.269,309.85 335.732,307.808 334,306.808C333.382,306.451 333,305.791 333,305.076L333,296.994C333,296.279 333.382,295.619 334,295.262C335.732,294.262 339.269,292.22 341,291.22ZM341.534,298.315C341.202,298.145 340.974,297.799 340.974,297.401C340.974,296.835 341.434,296.375 342,296.375C342.566,296.375 343.026,296.835 343.026,297.401C343.026,297.799 342.798,298.145 342.466,298.315L342.466,303.758C342.798,303.928 343.026,304.274 343.026,304.672C343.026,305.238 342.566,305.698 342,305.698C341.434,305.698 340.974,305.238 340.974,304.672C340.974,304.274 341.202,303.928 341.534,303.758L341.534,298.315ZM344.332,299.679C343.883,299.495 343.566,299.053 343.566,298.539C343.566,297.859 344.118,297.307 344.798,297.307C345.478,297.307 346.029,297.859 346.029,298.539C346.029,299.053 345.713,299.495 345.264,299.679L345.264,303.232C345.489,303.383 345.637,303.64 345.637,303.93C345.637,304.393 345.261,304.77 344.798,304.77C344.334,304.77 343.958,304.393 343.958,303.93C343.958,303.639 344.107,303.383 344.332,303.232L344.332,299.679ZM338.736,298.844C338.511,298.694 338.363,298.437 338.363,298.147C338.363,297.683 338.739,297.307 339.203,297.307C339.666,297.307 340.042,297.683 340.042,298.147C340.042,298.438 339.894,298.694 339.668,298.845L339.668,302.4C340.115,302.585 340.429,303.025 340.429,303.538C340.429,304.218 339.877,304.77 339.198,304.77C338.518,304.77 337.966,304.218 337.966,303.538C337.966,303.022 338.285,302.579 338.736,302.396L338.736,298.844ZM336.407,299.628C337.184,299.628 337.815,300.258 337.815,301.035C337.815,301.812 337.184,302.443 336.407,302.443C335.631,302.443 335,301.812 335,301.035C335,300.258 335.631,299.628 336.407,299.628ZM347.592,299.628C348.369,299.628 348.999,300.258 348.999,301.035C348.999,301.812 348.369,302.442 347.592,302.442C346.815,302.442 346.185,301.812 346.185,301.035C346.185,300.258 346.815,299.628 347.592,299.628Z" style="fill:rgb(51,51,51);"/>
            </g>
        </g>
    </g>
</svg>
