<?xml version="1.0" encoding="UTF-8" standalone="no"?>
<!DOCTYPE svg PUBLIC "-//W3C//DTD SVG 1.1//EN" "http://www.w3.org/Graphics/SVG/1.1/DTD/svg11.dtd">
<svg width="100%" height="100%" viewBox="0 0 24 24" version="1.1" xmlns="http://www.w3.org/2000/svg" xmlns:xlink="http://www.w3.org/1999/xlink" xml:space="preserve" xmlns:serif="http://www.serif.com/" style="fill-rule:evenodd;clip-rule:evenodd;stroke-linejoin:round;stroke-miterlimit:2;">
    <g transform="matrix(1,0,0,1,-360,-289)">
        <g id="Domain-fill-4" serif:id="Domain fill 4" transform="matrix(1,0,0,1,360,289.035)">
            <rect x="0" y="0" width="24" height="24" style="fill:none;"/>
            <g transform="matrix(1,0,0,1,-360,-289.035)">
                <path d="M371,291.22C371.619,290.863 372.381,290.863 373,291.22C374.731,292.22 378.268,294.262 380,295.262C380.618,295.619 381,296.279 381,296.994L381,305.076C381,305.791 380.618,306.451 380,306.808C378.268,307.808 374.731,309.85 373,310.85C372.381,311.207 371.619,311.207 371,310.85C369.269,309.85 365.732,307.808 364,306.808C363.382,306.451 363,305.791 363,305.076L363,296.994C363,296.279 363.382,295.619 364,295.262C365.732,294.262 369.269,292.22 371,291.22ZM376.5,297.035L376.5,297.035C376.776,297.035 377,296.811 377,296.535C377,296.26 376.778,296.037 376.503,296.035L376.5,296.035L375,296.035L375.001,305.035L369,305.035L369,296.035L367.5,296.035C367.224,296.035 367,296.259 367,296.535C367,296.811 367.224,297.035 367.5,297.035L367.5,297.035L368,297.035L368,305.035C368,305.554 368.396,305.982 368.998,306.035L375.001,306.035C375.612,305.941 375.952,305.569 376,305.035L376,297.035L376.5,297.035ZM371.857,304.035C371.399,303.686 370,302.464 370,300.593C370,298.357 372,296.035 372,296.035C372,296.035 374,298.357 374,300.593C374,302.464 372.601,303.686 372.143,304.035C372.199,303.438 372.25,302.617 372.25,301.606C372.25,299.37 372,297.048 372,297.048C372,297.048 371.75,299.37 371.75,301.606C371.75,302.617 371.801,303.438 371.857,304.035Z" style="fill:rgb(51,51,51);"/>
            </g>
        </g>
    </g>
</svg>
