<?xml version="1.0" encoding="UTF-8" standalone="no"?>
<!DOCTYPE svg PUBLIC "-//W3C//DTD SVG 1.1//EN" "http://www.w3.org/Graphics/SVG/1.1/DTD/svg11.dtd">
<svg width="100%" height="100%" viewBox="0 0 692 300" version="1.1" xmlns="http://www.w3.org/2000/svg" xmlns:xlink="http://www.w3.org/1999/xlink" xml:space="preserve" xmlns:serif="http://www.serif.com/" style="fill-rule:evenodd;clip-rule:evenodd;stroke-linejoin:round;stroke-miterlimit:2;">
    <g transform="matrix(1,0,0,1,-1424,0)">
        <g id="EBS-Vertical-White" serif:id="EBS Vertical White" transform="matrix(0.65283,0,0,0.576923,-5982.36,-5216.73)">
            <rect x="11345" y="9042.33" width="1060" height="520" style="fill:none;"/>
            <g transform="matrix(1.45797,0,0,1.6498,-2573.33,-3326.92)">
                <g transform="matrix(1.05747,0,0,1.05747,-1251.78,677.886)">
                    <g transform="matrix(1,0,0,1,-247.188,53.3086)">
                        <path d="M10482.1,6548.72L10574,6601.79C10577.7,6603.93 10581.9,6605 10586,6605C10586,6609.46 10586,6665 10586,6665C10581.9,6665 10577.7,6663.93 10574,6661.79C10554,6650.24 10514.1,6627.19 10494.1,6615.64C10486.7,6611.36 10482.1,6603.43 10482.1,6594.86L10482.1,6548.72Z" style="fill:rgb(111,191,61);"/>
                    </g>
                    <g transform="matrix(1,0,0,1,-247.188,-18.7073)">
                        <path d="M10494.1,6615.64L10512.9,6626.54C10505.8,6622.4 10499.3,6618.64 10494.1,6615.64L10494.1,6615.64Z" style="fill:rgb(111,191,61);"/>
                    </g>
                    <g transform="matrix(-1,0,0,1,20924.8,53.3086)">
                        <path d="M10482.1,6548.72L10574,6601.79C10577.7,6603.93 10581.9,6605 10586,6605C10586,6609.46 10586,6665 10586,6665C10581.9,6665 10577.7,6663.93 10574,6661.79C10554,6650.24 10514.1,6627.19 10494.1,6615.64C10486.7,6611.36 10482.1,6603.43 10482.1,6594.86L10482.1,6548.72Z" style="fill:rgb(0,141,108);"/>
                    </g>
                    <g transform="matrix(-1,0,0,1,20924.8,-18.7138)">
                        <path d="M10494.1,6615.64C10495.8,6616.66 10497.8,6617.77 10499.8,6618.96C10499.8,6618.96 10494.1,6615.64 10494.1,6615.64Z" style="fill:rgb(0,141,108);"/>
                    </g>
                    <g transform="matrix(0.993528,0,0,0.993528,-757.566,1492.36)">
                        <path d="M11156.6,5123.88C11160.3,5126.04 11164.5,5127.12 11168.7,5127.12L11168.7,5187.51C11164.5,5187.51 11160.3,5186.43 11156.6,5184.27L11076.1,5137.83C11068.6,5133.46 11064.1,5125.51 11064.1,5116.91L11064.1,5084.41C11064.1,5080.05 11065.2,5075.96 11067.3,5072.33L11156.6,5123.88Z" style="fill:rgb(139,208,51);"/>
                    </g>
                    <g transform="matrix(0.993528,0,0,0.993528,-757.566,1492.36)">
                        <path d="M11180.7,5184.26C11177,5186.42 11172.8,5187.5 11168.7,5187.5L11168.7,5127.11C11172.8,5127.11 11177,5126.03 11180.7,5123.87L11270,5072.32C11270,5072.32 11270.1,5072.49 11270.1,5072.49C11272.1,5076.08 11273.2,5080.11 11273.3,5084.4L11273.3,5116.9C11273.3,5125.5 11268.7,5133.45 11261.2,5137.82L11180.7,5184.26Z" style="fill:rgb(50,171,90);"/>
                    </g>
                    <g transform="matrix(1,0,0,1,-247.188,-78.7073)">
                        <path d="M10534,6578.72L10574,6601.79C10577.7,6603.93 10581.9,6605 10586,6605L10586,6665C10581.9,6665 10577.7,6663.93 10574,6661.79L10485.3,6610.57C10487.4,6606.98 10490.4,6603.93 10494.1,6601.79L10534,6578.72Z" style="fill:rgb(153,215,45);"/>
                    </g>
                    <g transform="matrix(-1,0,0,1,20924.8,-78.7073)">
                        <path d="M10534,6578.72L10574,6601.79C10577.7,6603.93 10581.9,6605 10586,6605L10586,6665C10581.9,6665 10577.7,6663.93 10574,6661.79L10485.3,6610.57C10487.4,6606.98 10490.4,6603.93 10494.1,6601.79L10534,6578.72Z" style="fill:rgb(75,185,80);"/>
                    </g>
                    <g transform="matrix(1,0,0,1,-247.188,-78.7073)">
                        <path d="M10586,6605C10581.9,6605 10577.7,6603.93 10574,6601.79L10534,6578.72L10574,6555.64C10577.7,6553.5 10581.9,6552.43 10586,6552.43L10586,6605Z" style="fill:rgb(167,224,40);"/>
                    </g>
                    <g transform="matrix(-1,0,0,1,20924.8,-78.7073)">
                        <path d="M10586,6605C10581.9,6605 10577.7,6603.93 10574,6601.79L10534,6578.72L10574,6555.64C10577.7,6553.5 10581.9,6552.43 10586,6552.43L10586,6605Z" style="fill:rgb(100,200,71);"/>
                    </g>
                </g>
                <g transform="matrix(1.42207,0,0,1.42207,7529.76,7244.08)">
                    <g transform="matrix(59.0688,0,0,59.0688,1620,250)">
                        <path d="M0.567,-0.121L0.567,0L0.074,0L0.074,-0.71L0.558,-0.71L0.558,-0.589L0.212,-0.589L0.212,-0.418L0.511,-0.418L0.511,-0.306L0.212,-0.306L0.212,-0.121L0.567,-0.121Z" style="fill:white;fill-rule:nonzero;"/>
                    </g>
                    <g transform="matrix(59.0688,0,0,59.0688,1655.15,250)">
                        <path d="M0.548,0L0.414,0L0.414,-0.294C0.414,-0.336 0.407,-0.367 0.392,-0.386C0.377,-0.405 0.357,-0.415 0.331,-0.415C0.318,-0.415 0.304,-0.412 0.29,-0.407C0.276,-0.402 0.263,-0.394 0.251,-0.385C0.238,-0.375 0.227,-0.363 0.217,-0.35C0.207,-0.337 0.2,-0.322 0.195,-0.306L0.195,0L0.061,0L0.061,-0.524L0.182,-0.524L0.182,-0.427C0.201,-0.46 0.229,-0.486 0.266,-0.505C0.303,-0.524 0.344,-0.533 0.39,-0.533C0.423,-0.533 0.449,-0.527 0.47,-0.515C0.491,-0.503 0.507,-0.487 0.518,-0.468C0.529,-0.449 0.537,-0.427 0.542,-0.402C0.546,-0.377 0.548,-0.352 0.548,-0.327L0.548,0Z" style="fill:white;fill-rule:nonzero;"/>
                    </g>
                    <g transform="matrix(59.0688,0,0,59.0688,1690.53,250)">
                        <path d="M0.375,-0.027C0.357,-0.019 0.335,-0.011 0.309,-0.003C0.283,0.005 0.256,0.009 0.227,0.009C0.208,0.009 0.191,0.007 0.175,0.002C0.158,-0.003 0.144,-0.01 0.132,-0.021C0.119,-0.031 0.109,-0.044 0.102,-0.061C0.095,-0.077 0.091,-0.097 0.091,-0.12L0.091,-0.421L0.022,-0.421L0.022,-0.524L0.091,-0.524L0.091,-0.694L0.225,-0.694L0.225,-0.524L0.335,-0.524L0.335,-0.421L0.225,-0.421L0.225,-0.165C0.225,-0.146 0.23,-0.133 0.24,-0.126C0.249,-0.118 0.261,-0.114 0.275,-0.114C0.289,-0.114 0.303,-0.116 0.316,-0.121C0.329,-0.126 0.34,-0.13 0.348,-0.133L0.375,-0.027Z" style="fill:white;fill-rule:nonzero;"/>
                    </g>
                    <g transform="matrix(59.0688,0,0,59.0688,1712.44,250)">
                        <path d="M0.304,0.01C0.262,0.01 0.224,0.003 0.19,-0.012C0.156,-0.026 0.127,-0.045 0.103,-0.07C0.079,-0.095 0.061,-0.123 0.048,-0.156C0.035,-0.189 0.028,-0.223 0.028,-0.259C0.028,-0.296 0.034,-0.331 0.047,-0.365C0.06,-0.398 0.078,-0.427 0.102,-0.452C0.126,-0.476 0.155,-0.496 0.19,-0.511C0.224,-0.526 0.262,-0.533 0.305,-0.533C0.348,-0.533 0.386,-0.526 0.42,-0.511C0.453,-0.496 0.482,-0.477 0.506,-0.452C0.529,-0.427 0.547,-0.399 0.56,-0.366C0.572,-0.333 0.578,-0.299 0.578,-0.264C0.578,-0.255 0.578,-0.247 0.578,-0.239C0.577,-0.231 0.576,-0.224 0.575,-0.219L0.17,-0.219C0.172,-0.198 0.177,-0.18 0.185,-0.164C0.193,-0.148 0.203,-0.134 0.216,-0.123C0.229,-0.112 0.243,-0.103 0.259,-0.097C0.275,-0.091 0.292,-0.088 0.309,-0.088C0.336,-0.088 0.361,-0.094 0.385,-0.108C0.408,-0.121 0.424,-0.138 0.433,-0.159L0.548,-0.127C0.529,-0.087 0.498,-0.054 0.456,-0.029C0.413,-0.003 0.363,0.01 0.304,0.01ZM0.44,-0.306C0.437,-0.345 0.422,-0.377 0.397,-0.401C0.371,-0.424 0.34,-0.436 0.303,-0.436C0.285,-0.436 0.268,-0.433 0.253,-0.427C0.237,-0.42 0.223,-0.411 0.211,-0.4C0.199,-0.389 0.189,-0.375 0.182,-0.359C0.174,-0.343 0.169,-0.325 0.168,-0.306L0.44,-0.306Z" style="fill:white;fill-rule:nonzero;"/>
                    </g>
                    <g transform="matrix(59.0688,0,0,59.0688,1747.82,250)">
                        <path d="M0.373,-0.408C0.332,-0.407 0.296,-0.4 0.264,-0.385C0.232,-0.37 0.209,-0.347 0.195,-0.317L0.195,0L0.061,0L0.061,-0.524L0.184,-0.524L0.184,-0.412C0.193,-0.43 0.204,-0.446 0.217,-0.461C0.23,-0.475 0.243,-0.487 0.258,-0.498C0.273,-0.509 0.288,-0.517 0.303,-0.523C0.318,-0.528 0.332,-0.531 0.346,-0.531L0.363,-0.531C0.366,-0.531 0.37,-0.531 0.373,-0.53L0.373,-0.408Z" style="fill:white;fill-rule:nonzero;"/>
                    </g>
                    <g transform="matrix(59.0688,0,0,59.0688,1770.68,250)">
                        <path d="M0.375,0.01C0.334,0.01 0.298,0.001 0.267,-0.018C0.236,-0.036 0.212,-0.061 0.195,-0.092L0.195,0.213L0.061,0.213L0.061,-0.524L0.178,-0.524L0.178,-0.434C0.197,-0.465 0.222,-0.489 0.253,-0.507C0.284,-0.524 0.319,-0.533 0.359,-0.533C0.394,-0.533 0.427,-0.526 0.457,-0.512C0.487,-0.497 0.513,-0.478 0.535,-0.454C0.556,-0.429 0.573,-0.401 0.586,-0.368C0.598,-0.335 0.604,-0.3 0.604,-0.263C0.604,-0.225 0.598,-0.189 0.587,-0.156C0.576,-0.123 0.56,-0.094 0.54,-0.069C0.519,-0.044 0.495,-0.025 0.467,-0.011C0.439,0.003 0.408,0.01 0.375,0.01ZM0.33,-0.104C0.35,-0.104 0.369,-0.108 0.386,-0.117C0.403,-0.126 0.417,-0.137 0.429,-0.152C0.441,-0.167 0.45,-0.184 0.457,-0.203C0.464,-0.222 0.467,-0.242 0.467,-0.263C0.467,-0.285 0.463,-0.306 0.456,-0.325C0.449,-0.343 0.439,-0.36 0.426,-0.374C0.413,-0.388 0.397,-0.399 0.38,-0.407C0.362,-0.415 0.343,-0.419 0.322,-0.419C0.309,-0.419 0.296,-0.417 0.283,-0.413C0.27,-0.408 0.257,-0.402 0.246,-0.394C0.235,-0.386 0.225,-0.377 0.216,-0.366C0.207,-0.355 0.2,-0.344 0.195,-0.331L0.195,-0.208C0.207,-0.178 0.225,-0.153 0.25,-0.134C0.275,-0.114 0.301,-0.104 0.33,-0.104Z" style="fill:white;fill-rule:nonzero;"/>
                    </g>
                    <g transform="matrix(59.0688,0,0,59.0688,1808.13,250)">
                        <path d="M0.373,-0.408C0.332,-0.407 0.296,-0.4 0.264,-0.385C0.232,-0.37 0.209,-0.347 0.195,-0.317L0.195,0L0.061,0L0.061,-0.524L0.184,-0.524L0.184,-0.412C0.193,-0.43 0.204,-0.446 0.217,-0.461C0.23,-0.475 0.243,-0.487 0.258,-0.498C0.273,-0.509 0.288,-0.517 0.303,-0.523C0.318,-0.528 0.332,-0.531 0.346,-0.531L0.363,-0.531C0.366,-0.531 0.37,-0.531 0.373,-0.53L0.373,-0.408Z" style="fill:white;fill-rule:nonzero;"/>
                    </g>
                    <g transform="matrix(59.0688,0,0,59.0688,1830.99,250)">
                        <path d="M0.061,0L0.061,-0.524L0.195,-0.524L0.195,0L0.061,0ZM0.061,-0.597L0.061,-0.73L0.195,-0.73L0.195,-0.597L0.061,-0.597Z" style="fill:white;fill-rule:nonzero;"/>
                    </g>
                    <g transform="matrix(59.0688,0,0,59.0688,1846.06,250)">
                        <path d="M0.259,0.01C0.215,0.01 0.172,0.003 0.13,-0.011C0.088,-0.025 0.052,-0.045 0.022,-0.071L0.072,-0.155C0.104,-0.132 0.135,-0.115 0.166,-0.104C0.196,-0.092 0.226,-0.086 0.256,-0.086C0.283,-0.086 0.304,-0.091 0.319,-0.101C0.334,-0.111 0.342,-0.125 0.342,-0.144C0.342,-0.163 0.333,-0.176 0.315,-0.185C0.297,-0.194 0.268,-0.204 0.227,-0.215C0.193,-0.224 0.164,-0.233 0.14,-0.242C0.116,-0.251 0.097,-0.261 0.082,-0.272C0.067,-0.283 0.057,-0.295 0.05,-0.31C0.043,-0.324 0.04,-0.341 0.04,-0.361C0.04,-0.388 0.045,-0.412 0.056,-0.433C0.066,-0.454 0.08,-0.472 0.099,-0.488C0.118,-0.503 0.139,-0.514 0.165,-0.522C0.19,-0.53 0.217,-0.534 0.246,-0.534C0.285,-0.534 0.322,-0.528 0.357,-0.517C0.391,-0.506 0.422,-0.487 0.451,-0.462L0.397,-0.381C0.37,-0.401 0.345,-0.416 0.32,-0.425C0.295,-0.434 0.27,-0.439 0.245,-0.439C0.222,-0.439 0.203,-0.434 0.188,-0.425C0.173,-0.416 0.165,-0.401 0.165,-0.38C0.165,-0.371 0.167,-0.363 0.171,-0.357C0.174,-0.351 0.18,-0.346 0.188,-0.341C0.196,-0.336 0.207,-0.332 0.22,-0.328C0.233,-0.323 0.249,-0.319 0.268,-0.314C0.304,-0.305 0.335,-0.295 0.361,-0.286C0.386,-0.277 0.407,-0.266 0.424,-0.254C0.44,-0.242 0.452,-0.228 0.46,-0.213C0.467,-0.197 0.471,-0.178 0.471,-0.156C0.471,-0.105 0.452,-0.064 0.414,-0.035C0.376,-0.005 0.324,0.01 0.259,0.01Z" style="fill:white;fill-rule:nonzero;"/>
                    </g>
                    <g transform="matrix(59.0688,0,0,59.0688,1875.41,250)">
                        <path d="M0.304,0.01C0.262,0.01 0.224,0.003 0.19,-0.012C0.156,-0.026 0.127,-0.045 0.103,-0.07C0.079,-0.095 0.061,-0.123 0.048,-0.156C0.035,-0.189 0.028,-0.223 0.028,-0.259C0.028,-0.296 0.034,-0.331 0.047,-0.365C0.06,-0.398 0.078,-0.427 0.102,-0.452C0.126,-0.476 0.155,-0.496 0.19,-0.511C0.224,-0.526 0.262,-0.533 0.305,-0.533C0.348,-0.533 0.386,-0.526 0.42,-0.511C0.453,-0.496 0.482,-0.477 0.506,-0.452C0.529,-0.427 0.547,-0.399 0.56,-0.366C0.572,-0.333 0.578,-0.299 0.578,-0.264C0.578,-0.255 0.578,-0.247 0.578,-0.239C0.577,-0.231 0.576,-0.224 0.575,-0.219L0.17,-0.219C0.172,-0.198 0.177,-0.18 0.185,-0.164C0.193,-0.148 0.203,-0.134 0.216,-0.123C0.229,-0.112 0.243,-0.103 0.259,-0.097C0.275,-0.091 0.292,-0.088 0.309,-0.088C0.336,-0.088 0.361,-0.094 0.385,-0.108C0.408,-0.121 0.424,-0.138 0.433,-0.159L0.548,-0.127C0.529,-0.087 0.498,-0.054 0.456,-0.029C0.413,-0.003 0.363,0.01 0.304,0.01ZM0.44,-0.306C0.437,-0.345 0.422,-0.377 0.397,-0.401C0.371,-0.424 0.34,-0.436 0.303,-0.436C0.285,-0.436 0.268,-0.433 0.253,-0.427C0.237,-0.42 0.223,-0.411 0.211,-0.4C0.199,-0.389 0.189,-0.375 0.182,-0.359C0.174,-0.343 0.169,-0.325 0.168,-0.306L0.44,-0.306Z" style="fill:white;fill-rule:nonzero;"/>
                    </g>
                    <g transform="matrix(59.0688,0,0,59.0688,1620,309.069)">
                        <path d="M0.623,-0.183C0.623,-0.156 0.618,-0.132 0.607,-0.11C0.596,-0.087 0.582,-0.068 0.564,-0.052C0.546,-0.035 0.525,-0.023 0.501,-0.014C0.477,-0.005 0.451,0 0.424,0L0.089,0L0.089,-0.71L0.431,-0.71C0.456,-0.71 0.478,-0.705 0.498,-0.694C0.518,-0.683 0.535,-0.67 0.549,-0.653C0.563,-0.635 0.574,-0.616 0.582,-0.595C0.589,-0.573 0.593,-0.551 0.593,-0.529C0.593,-0.493 0.584,-0.46 0.566,-0.431C0.548,-0.401 0.523,-0.379 0.491,-0.364C0.532,-0.352 0.564,-0.33 0.588,-0.297C0.611,-0.264 0.623,-0.226 0.623,-0.183ZM0.553,-0.195C0.553,-0.212 0.55,-0.229 0.544,-0.246C0.538,-0.262 0.53,-0.276 0.519,-0.289C0.507,-0.301 0.495,-0.311 0.48,-0.319C0.464,-0.326 0.448,-0.33 0.431,-0.33L0.159,-0.33L0.159,-0.061L0.424,-0.061C0.442,-0.061 0.459,-0.065 0.475,-0.072C0.49,-0.079 0.504,-0.089 0.516,-0.102C0.527,-0.114 0.536,-0.128 0.543,-0.145C0.55,-0.161 0.553,-0.178 0.553,-0.195ZM0.159,-0.649L0.159,-0.387L0.403,-0.387C0.42,-0.387 0.436,-0.391 0.452,-0.398C0.467,-0.405 0.479,-0.415 0.49,-0.427C0.501,-0.439 0.509,-0.453 0.515,-0.469C0.521,-0.484 0.524,-0.501 0.524,-0.518C0.524,-0.536 0.521,-0.553 0.516,-0.569C0.51,-0.585 0.502,-0.599 0.492,-0.611C0.481,-0.622 0.469,-0.632 0.455,-0.639C0.441,-0.646 0.426,-0.649 0.409,-0.649L0.159,-0.649Z" style="fill:white;fill-rule:nonzero;"/>
                    </g>
                    <g transform="matrix(59.0688,0,0,59.0688,1659.34,309.069)">
                        <path d="M0.335,-0.461C0.289,-0.46 0.249,-0.447 0.215,-0.423C0.181,-0.399 0.157,-0.366 0.143,-0.324L0.143,0L0.075,0L0.075,-0.521L0.139,-0.521L0.139,-0.396C0.158,-0.436 0.184,-0.467 0.217,-0.49C0.25,-0.513 0.285,-0.524 0.322,-0.524C0.327,-0.524 0.332,-0.524 0.335,-0.523L0.335,-0.461Z" style="fill:white;fill-rule:nonzero;"/>
                    </g>
                    <g transform="matrix(59.0688,0,0,59.0688,1678.54,309.069)">
                        <path d="M0.3,0.01C0.262,0.01 0.227,0.003 0.196,-0.012C0.164,-0.026 0.136,-0.046 0.113,-0.071C0.09,-0.095 0.071,-0.124 0.059,-0.157C0.046,-0.19 0.039,-0.225 0.039,-0.262C0.039,-0.299 0.046,-0.333 0.059,-0.366C0.071,-0.398 0.09,-0.426 0.113,-0.451C0.135,-0.475 0.163,-0.494 0.195,-0.509C0.227,-0.523 0.262,-0.53 0.299,-0.53C0.337,-0.53 0.372,-0.523 0.404,-0.509C0.435,-0.494 0.462,-0.475 0.485,-0.45C0.508,-0.425 0.525,-0.397 0.538,-0.365C0.551,-0.333 0.557,-0.299 0.557,-0.263L0.557,-0.247C0.557,-0.242 0.557,-0.238 0.556,-0.236L0.11,-0.236C0.112,-0.208 0.119,-0.182 0.13,-0.159C0.14,-0.135 0.155,-0.114 0.172,-0.097C0.189,-0.08 0.209,-0.066 0.232,-0.057C0.254,-0.047 0.278,-0.042 0.303,-0.042C0.32,-0.042 0.336,-0.044 0.353,-0.049C0.37,-0.054 0.385,-0.06 0.399,-0.068C0.413,-0.076 0.426,-0.086 0.437,-0.098C0.448,-0.109 0.457,-0.122 0.463,-0.136L0.522,-0.12C0.514,-0.101 0.503,-0.083 0.488,-0.068C0.473,-0.052 0.456,-0.038 0.437,-0.027C0.418,-0.015 0.396,-0.006 0.373,0.001C0.35,0.007 0.325,0.01 0.3,0.01ZM0.492,-0.288C0.49,-0.316 0.484,-0.341 0.473,-0.365C0.462,-0.388 0.448,-0.407 0.431,-0.424C0.413,-0.441 0.394,-0.454 0.372,-0.463C0.349,-0.472 0.325,-0.477 0.3,-0.477C0.275,-0.477 0.251,-0.472 0.228,-0.463C0.205,-0.454 0.186,-0.441 0.169,-0.424C0.152,-0.407 0.138,-0.387 0.128,-0.364C0.117,-0.341 0.111,-0.315 0.109,-0.288L0.492,-0.288Z" style="fill:white;fill-rule:nonzero;"/>
                    </g>
                    <g transform="matrix(59.0688,0,0,59.0688,1713.21,309.069)">
                        <path d="M0.3,0.01C0.262,0.01 0.227,0.003 0.196,-0.012C0.164,-0.026 0.136,-0.046 0.113,-0.071C0.09,-0.095 0.071,-0.124 0.059,-0.157C0.046,-0.19 0.039,-0.225 0.039,-0.262C0.039,-0.299 0.046,-0.333 0.059,-0.366C0.071,-0.398 0.09,-0.426 0.113,-0.451C0.135,-0.475 0.163,-0.494 0.195,-0.509C0.227,-0.523 0.262,-0.53 0.299,-0.53C0.337,-0.53 0.372,-0.523 0.404,-0.509C0.435,-0.494 0.462,-0.475 0.485,-0.45C0.508,-0.425 0.525,-0.397 0.538,-0.365C0.551,-0.333 0.557,-0.299 0.557,-0.263L0.557,-0.247C0.557,-0.242 0.557,-0.238 0.556,-0.236L0.11,-0.236C0.112,-0.208 0.119,-0.182 0.13,-0.159C0.14,-0.135 0.155,-0.114 0.172,-0.097C0.189,-0.08 0.209,-0.066 0.232,-0.057C0.254,-0.047 0.278,-0.042 0.303,-0.042C0.32,-0.042 0.336,-0.044 0.353,-0.049C0.37,-0.054 0.385,-0.06 0.399,-0.068C0.413,-0.076 0.426,-0.086 0.437,-0.098C0.448,-0.109 0.457,-0.122 0.463,-0.136L0.522,-0.12C0.514,-0.101 0.503,-0.083 0.488,-0.068C0.473,-0.052 0.456,-0.038 0.437,-0.027C0.418,-0.015 0.396,-0.006 0.373,0.001C0.35,0.007 0.325,0.01 0.3,0.01ZM0.492,-0.288C0.49,-0.316 0.484,-0.341 0.473,-0.365C0.462,-0.388 0.448,-0.407 0.431,-0.424C0.413,-0.441 0.394,-0.454 0.372,-0.463C0.349,-0.472 0.325,-0.477 0.3,-0.477C0.275,-0.477 0.251,-0.472 0.228,-0.463C0.205,-0.454 0.186,-0.441 0.169,-0.424C0.152,-0.407 0.138,-0.387 0.128,-0.364C0.117,-0.341 0.111,-0.315 0.109,-0.288L0.492,-0.288Z" style="fill:white;fill-rule:nonzero;"/>
                    </g>
                    <g transform="matrix(59.0688,0,0,59.0688,1747.88,309.069)">
                        <path d="M0.289,0.01C0.253,0.01 0.22,0.003 0.189,-0.013C0.158,-0.028 0.132,-0.047 0.11,-0.072C0.088,-0.097 0.071,-0.125 0.059,-0.158C0.046,-0.19 0.04,-0.224 0.04,-0.259C0.04,-0.296 0.046,-0.331 0.058,-0.364C0.07,-0.397 0.087,-0.425 0.108,-0.45C0.129,-0.475 0.154,-0.494 0.183,-0.509C0.212,-0.523 0.243,-0.53 0.278,-0.53C0.322,-0.53 0.361,-0.519 0.395,-0.496C0.429,-0.472 0.456,-0.445 0.475,-0.412L0.475,-0.73L0.543,-0.73L0.543,-0.088C0.543,-0.069 0.551,-0.06 0.567,-0.06L0.567,0C0.557,0.002 0.549,0.003 0.543,0.003C0.527,0.003 0.513,-0.002 0.501,-0.013C0.489,-0.023 0.483,-0.035 0.483,-0.05L0.483,-0.101C0.462,-0.067 0.434,-0.04 0.399,-0.02C0.364,0 0.327,0.01 0.289,0.01ZM0.304,-0.05C0.321,-0.05 0.339,-0.053 0.358,-0.06C0.377,-0.067 0.394,-0.076 0.411,-0.088C0.428,-0.099 0.442,-0.113 0.454,-0.129C0.465,-0.144 0.472,-0.161 0.475,-0.179L0.475,-0.34C0.468,-0.358 0.459,-0.375 0.446,-0.391C0.433,-0.406 0.419,-0.42 0.403,-0.432C0.386,-0.444 0.369,-0.453 0.35,-0.46C0.331,-0.467 0.313,-0.47 0.295,-0.47C0.267,-0.47 0.242,-0.464 0.219,-0.452C0.196,-0.44 0.177,-0.424 0.161,-0.405C0.144,-0.385 0.132,-0.362 0.123,-0.337C0.114,-0.312 0.11,-0.286 0.11,-0.259C0.11,-0.231 0.115,-0.204 0.125,-0.179C0.135,-0.154 0.149,-0.132 0.166,-0.113C0.183,-0.094 0.204,-0.078 0.228,-0.067C0.251,-0.056 0.277,-0.05 0.304,-0.05Z" style="fill:white;fill-rule:nonzero;"/>
                    </g>
                    <g transform="matrix(59.0688,0,0,59.0688,1784.62,309.069)">
                        <path d="M0.075,0L0.075,-0.521L0.143,-0.521L0.143,0L0.075,0ZM0.075,-0.63L0.075,-0.73L0.143,-0.73L0.143,-0.63L0.075,-0.63Z" style="fill:white;fill-rule:nonzero;"/>
                    </g>
                    <g transform="matrix(59.0688,0,0,59.0688,1797.5,309.069)">
                        <path d="M0.513,0L0.445,0L0.445,-0.291C0.445,-0.353 0.436,-0.398 0.418,-0.426C0.399,-0.454 0.371,-0.468 0.333,-0.468C0.313,-0.468 0.293,-0.464 0.273,-0.457C0.253,-0.45 0.235,-0.439 0.218,-0.426C0.201,-0.413 0.185,-0.397 0.172,-0.379C0.159,-0.36 0.149,-0.34 0.143,-0.319L0.143,0L0.075,0L0.075,-0.521L0.137,-0.521L0.137,-0.403C0.158,-0.441 0.189,-0.472 0.229,-0.495C0.268,-0.518 0.311,-0.53 0.358,-0.53C0.387,-0.53 0.411,-0.525 0.431,-0.514C0.451,-0.503 0.467,-0.488 0.479,-0.469C0.491,-0.45 0.5,-0.426 0.505,-0.398C0.51,-0.37 0.513,-0.339 0.513,-0.305L0.513,0Z" style="fill:white;fill-rule:nonzero;"/>
                    </g>
                    <g transform="matrix(59.0688,0,0,59.0688,1831.94,309.069)">
                        <path d="M0.284,0.007C0.248,0.007 0.215,0 0.186,-0.016C0.156,-0.031 0.13,-0.05 0.109,-0.075C0.087,-0.1 0.07,-0.128 0.058,-0.16C0.046,-0.192 0.04,-0.225 0.04,-0.259C0.04,-0.295 0.046,-0.329 0.058,-0.363C0.069,-0.396 0.086,-0.424 0.107,-0.449C0.128,-0.474 0.154,-0.493 0.184,-0.508C0.213,-0.523 0.246,-0.53 0.282,-0.53C0.327,-0.53 0.365,-0.519 0.398,-0.497C0.431,-0.474 0.459,-0.446 0.482,-0.412L0.482,-0.521L0.543,-0.521L0.543,0.002C0.543,0.038 0.536,0.07 0.523,0.098C0.509,0.125 0.491,0.148 0.468,0.167C0.444,0.186 0.418,0.2 0.387,0.209C0.356,0.218 0.323,0.223 0.288,0.223C0.228,0.223 0.18,0.212 0.143,0.191C0.106,0.17 0.077,0.141 0.054,0.105L0.096,0.072C0.117,0.105 0.144,0.13 0.178,0.146C0.212,0.161 0.249,0.169 0.288,0.169C0.313,0.169 0.337,0.166 0.36,0.159C0.383,0.152 0.403,0.141 0.42,0.128C0.436,0.114 0.45,0.096 0.46,0.076C0.47,0.054 0.475,0.03 0.475,0.002L0.475,-0.101C0.455,-0.068 0.428,-0.041 0.393,-0.022C0.358,-0.003 0.322,0.007 0.284,0.007ZM0.303,-0.05C0.323,-0.05 0.343,-0.054 0.362,-0.061C0.381,-0.068 0.399,-0.078 0.415,-0.091C0.43,-0.103 0.443,-0.117 0.454,-0.132C0.465,-0.147 0.472,-0.163 0.475,-0.179L0.475,-0.34C0.468,-0.359 0.458,-0.376 0.445,-0.392C0.432,-0.408 0.418,-0.422 0.402,-0.433C0.386,-0.444 0.369,-0.453 0.351,-0.46C0.332,-0.467 0.314,-0.47 0.295,-0.47C0.266,-0.47 0.24,-0.464 0.217,-0.452C0.194,-0.439 0.174,-0.423 0.158,-0.403C0.142,-0.383 0.13,-0.36 0.122,-0.335C0.113,-0.31 0.109,-0.284 0.109,-0.258C0.109,-0.23 0.114,-0.203 0.124,-0.178C0.134,-0.153 0.148,-0.131 0.166,-0.112C0.183,-0.093 0.204,-0.078 0.227,-0.067C0.25,-0.056 0.276,-0.05 0.303,-0.05Z" style="fill:white;fill-rule:nonzero;"/>
                    </g>
                    <g transform="matrix(59.0688,0,0,59.0688,1620,368.138)">
                        <path d="M0.504,-0.577C0.484,-0.6 0.457,-0.618 0.424,-0.632C0.391,-0.646 0.353,-0.653 0.31,-0.653C0.247,-0.653 0.202,-0.641 0.173,-0.618C0.144,-0.594 0.13,-0.562 0.13,-0.521C0.13,-0.5 0.134,-0.482 0.142,-0.469C0.149,-0.455 0.161,-0.443 0.177,-0.433C0.193,-0.423 0.214,-0.414 0.239,-0.407C0.264,-0.4 0.293,-0.392 0.327,-0.385C0.365,-0.377 0.399,-0.368 0.43,-0.358C0.46,-0.348 0.486,-0.335 0.507,-0.321C0.528,-0.306 0.545,-0.287 0.556,-0.266C0.567,-0.245 0.573,-0.218 0.573,-0.186C0.573,-0.153 0.567,-0.125 0.554,-0.101C0.541,-0.077 0.524,-0.057 0.501,-0.041C0.478,-0.025 0.451,-0.013 0.42,-0.006C0.389,0.002 0.354,0.006 0.317,0.006C0.207,0.006 0.112,-0.028 0.032,-0.097L0.067,-0.154C0.08,-0.141 0.095,-0.128 0.113,-0.116C0.13,-0.104 0.15,-0.094 0.172,-0.085C0.193,-0.076 0.216,-0.069 0.241,-0.064C0.266,-0.058 0.292,-0.056 0.319,-0.056C0.376,-0.056 0.42,-0.066 0.452,-0.087C0.483,-0.107 0.499,-0.138 0.499,-0.179C0.499,-0.201 0.495,-0.22 0.486,-0.235C0.476,-0.25 0.463,-0.263 0.445,-0.274C0.427,-0.284 0.405,-0.294 0.378,-0.302C0.351,-0.31 0.32,-0.318 0.285,-0.326C0.248,-0.335 0.215,-0.344 0.187,-0.353C0.159,-0.362 0.135,-0.374 0.116,-0.388C0.097,-0.402 0.082,-0.419 0.073,-0.439C0.063,-0.458 0.058,-0.482 0.058,-0.511C0.058,-0.544 0.064,-0.573 0.077,-0.599C0.089,-0.624 0.106,-0.646 0.129,-0.663C0.152,-0.68 0.178,-0.693 0.209,-0.702C0.24,-0.711 0.274,-0.715 0.311,-0.715C0.358,-0.715 0.401,-0.708 0.438,-0.694C0.474,-0.679 0.508,-0.659 0.538,-0.633L0.504,-0.577Z" style="fill:white;fill-rule:nonzero;"/>
                    </g>
                    <g transform="matrix(59.0688,0,0,59.0688,1654.79,368.138)">
                        <path d="M0.105,0.16C0.11,0.161 0.116,0.161 0.121,0.162C0.126,0.162 0.13,0.162 0.135,0.162C0.147,0.162 0.157,0.16 0.164,0.157C0.171,0.154 0.177,0.146 0.184,0.135C0.191,0.124 0.198,0.107 0.207,0.086C0.215,0.065 0.227,0.036 0.242,0L0.015,-0.521L0.085,-0.521L0.278,-0.063L0.457,-0.521L0.522,-0.521L0.252,0.151C0.245,0.17 0.233,0.187 0.216,0.202C0.199,0.216 0.175,0.223 0.146,0.223C0.139,0.223 0.133,0.223 0.127,0.223C0.121,0.222 0.114,0.221 0.105,0.22L0.105,0.16Z" style="fill:white;fill-rule:nonzero;"/>
                    </g>
                    <g transform="matrix(59.0688,0,0,59.0688,1686.1,368.138)">
                        <path d="M0.248,0.01C0.207,0.01 0.168,0.003 0.129,-0.01C0.09,-0.023 0.057,-0.043 0.029,-0.068L0.06,-0.114C0.089,-0.09 0.119,-0.072 0.15,-0.06C0.18,-0.048 0.212,-0.042 0.247,-0.042C0.289,-0.042 0.323,-0.051 0.348,-0.068C0.373,-0.085 0.385,-0.109 0.385,-0.14C0.385,-0.155 0.382,-0.167 0.375,-0.177C0.368,-0.186 0.359,-0.195 0.346,-0.202C0.333,-0.209 0.316,-0.216 0.297,-0.222C0.277,-0.227 0.254,-0.233 0.228,-0.239C0.198,-0.246 0.172,-0.254 0.15,-0.261C0.128,-0.268 0.11,-0.277 0.096,-0.286C0.081,-0.295 0.07,-0.307 0.064,-0.321C0.056,-0.334 0.053,-0.351 0.053,-0.372C0.053,-0.398 0.058,-0.421 0.069,-0.441C0.079,-0.461 0.093,-0.478 0.111,-0.491C0.128,-0.503 0.149,-0.513 0.173,-0.52C0.196,-0.527 0.221,-0.53 0.248,-0.53C0.288,-0.53 0.324,-0.524 0.357,-0.511C0.39,-0.498 0.416,-0.48 0.436,-0.459L0.403,-0.419C0.384,-0.439 0.36,-0.454 0.333,-0.464C0.305,-0.474 0.276,-0.479 0.246,-0.479C0.228,-0.479 0.211,-0.477 0.196,-0.474C0.181,-0.47 0.167,-0.464 0.156,-0.456C0.144,-0.448 0.135,-0.438 0.128,-0.426C0.121,-0.413 0.118,-0.399 0.118,-0.382C0.118,-0.368 0.12,-0.357 0.125,-0.348C0.13,-0.339 0.137,-0.332 0.148,-0.326C0.159,-0.319 0.172,-0.314 0.189,-0.309C0.205,-0.304 0.225,-0.298 0.248,-0.293C0.281,-0.285 0.311,-0.277 0.336,-0.269C0.361,-0.261 0.383,-0.252 0.4,-0.241C0.417,-0.23 0.429,-0.217 0.438,-0.202C0.447,-0.187 0.451,-0.168 0.451,-0.146C0.451,-0.098 0.433,-0.06 0.396,-0.032C0.359,-0.004 0.31,0.01 0.248,0.01Z" style="fill:white;fill-rule:nonzero;"/>
                    </g>
                    <g transform="matrix(59.0688,0,0,59.0688,1714.86,368.138)">
                        <path d="M0.325,-0.025C0.321,-0.023 0.315,-0.02 0.308,-0.017C0.3,-0.014 0.291,-0.01 0.281,-0.007C0.271,-0.004 0.26,-0.001 0.247,0.002C0.234,0.005 0.221,0.006 0.207,0.006C0.192,0.006 0.178,0.004 0.165,0C0.152,-0.004 0.14,-0.01 0.13,-0.019C0.12,-0.027 0.112,-0.037 0.106,-0.05C0.1,-0.063 0.097,-0.077 0.097,-0.094L0.097,-0.467L0.025,-0.467L0.025,-0.521L0.097,-0.521L0.097,-0.697L0.165,-0.697L0.165,-0.521L0.285,-0.521L0.285,-0.467L0.165,-0.467L0.165,-0.113C0.166,-0.094 0.173,-0.08 0.186,-0.071C0.198,-0.062 0.212,-0.057 0.228,-0.057C0.247,-0.057 0.264,-0.06 0.279,-0.067C0.294,-0.073 0.303,-0.077 0.307,-0.08L0.325,-0.025Z" style="fill:white;fill-rule:nonzero;"/>
                    </g>
                    <g transform="matrix(59.0688,0,0,59.0688,1733.88,368.138)">
                        <path d="M0.3,0.01C0.262,0.01 0.227,0.003 0.196,-0.012C0.164,-0.026 0.136,-0.046 0.113,-0.071C0.09,-0.095 0.071,-0.124 0.059,-0.157C0.046,-0.19 0.039,-0.225 0.039,-0.262C0.039,-0.299 0.046,-0.333 0.059,-0.366C0.071,-0.398 0.09,-0.426 0.113,-0.451C0.135,-0.475 0.163,-0.494 0.195,-0.509C0.227,-0.523 0.262,-0.53 0.299,-0.53C0.337,-0.53 0.372,-0.523 0.404,-0.509C0.435,-0.494 0.462,-0.475 0.485,-0.45C0.508,-0.425 0.525,-0.397 0.538,-0.365C0.551,-0.333 0.557,-0.299 0.557,-0.263L0.557,-0.247C0.557,-0.242 0.557,-0.238 0.556,-0.236L0.11,-0.236C0.112,-0.208 0.119,-0.182 0.13,-0.159C0.14,-0.135 0.155,-0.114 0.172,-0.097C0.189,-0.08 0.209,-0.066 0.232,-0.057C0.254,-0.047 0.278,-0.042 0.303,-0.042C0.32,-0.042 0.336,-0.044 0.353,-0.049C0.37,-0.054 0.385,-0.06 0.399,-0.068C0.413,-0.076 0.426,-0.086 0.437,-0.098C0.448,-0.109 0.457,-0.122 0.463,-0.136L0.522,-0.12C0.514,-0.101 0.503,-0.083 0.488,-0.068C0.473,-0.052 0.456,-0.038 0.437,-0.027C0.418,-0.015 0.396,-0.006 0.373,0.001C0.35,0.007 0.325,0.01 0.3,0.01ZM0.492,-0.288C0.49,-0.316 0.484,-0.341 0.473,-0.365C0.462,-0.388 0.448,-0.407 0.431,-0.424C0.413,-0.441 0.394,-0.454 0.372,-0.463C0.349,-0.472 0.325,-0.477 0.3,-0.477C0.275,-0.477 0.251,-0.472 0.228,-0.463C0.205,-0.454 0.186,-0.441 0.169,-0.424C0.152,-0.407 0.138,-0.387 0.128,-0.364C0.117,-0.341 0.111,-0.315 0.109,-0.288L0.492,-0.288Z" style="fill:white;fill-rule:nonzero;"/>
                    </g>
                    <g transform="matrix(59.0688,0,0,59.0688,1768.56,368.138)">
                        <path d="M0.85,0L0.782,0L0.782,-0.291C0.782,-0.352 0.772,-0.396 0.753,-0.425C0.734,-0.454 0.705,-0.468 0.667,-0.468C0.647,-0.468 0.628,-0.464 0.611,-0.457C0.593,-0.45 0.576,-0.439 0.562,-0.426C0.547,-0.413 0.533,-0.397 0.522,-0.379C0.511,-0.36 0.502,-0.34 0.496,-0.318L0.496,0L0.428,0L0.428,-0.291C0.428,-0.353 0.419,-0.398 0.4,-0.426C0.381,-0.454 0.353,-0.468 0.314,-0.468C0.275,-0.468 0.24,-0.454 0.209,-0.427C0.178,-0.4 0.156,-0.364 0.143,-0.319L0.143,0L0.075,0L0.075,-0.521L0.137,-0.521L0.137,-0.403C0.158,-0.443 0.186,-0.474 0.221,-0.497C0.256,-0.519 0.294,-0.53 0.336,-0.53C0.38,-0.53 0.415,-0.518 0.442,-0.493C0.468,-0.468 0.484,-0.436 0.49,-0.396C0.539,-0.485 0.606,-0.53 0.691,-0.53C0.72,-0.53 0.745,-0.525 0.766,-0.514C0.786,-0.503 0.802,-0.488 0.815,-0.469C0.827,-0.449 0.836,-0.425 0.842,-0.398C0.847,-0.37 0.85,-0.339 0.85,-0.305L0.85,0Z" style="fill:white;fill-rule:nonzero;"/>
                    </g>
                </g>
            </g>
        </g>
    </g>
</svg>
